999
Generated by Autodesk CAM - http://cam.autodesk.com
0
SECTION
2
HEADER
9
$ACADVER
1
AC1006
9
$ANGBASE
50
0
9
$ANGDIR
70
0
0
ENDSEC
0
SECTION
2
BLOCKS
0
ENDSEC
9
$EXTMIN
10
-300.025
20
-311.648
30
0
9
$EXTMAX
10
5.805
20
0.005
30
527.6
0
SECTION
2
ENTITIES
0
LINE
8
1
62
3
10
-299.975
20
-311.648
30
527.6
11
-299.975
21
-311.648
31
527.6
0
LINE
8
1
62
3
10
-299.975
20
-311.648
30
527.6
11
-299.975
21
-311.648
31
512.6
0
LINE
8
1
62
2
10
-299.975
20
-311.648
30
512.6
11
-300
21
-311.605
31
512.6
0
LINE
8
1
62
1
10
-300
20
-311.605
30
512.6
11
-300.004
21
-311.604
31
512.6
0
LINE
8
1
62
1
10
-300.004
20
-311.604
30
512.6
11
-300.005
21
-311.6
31
512.6
0
LINE
8
1
62
1
10
-300.005
20
-311.6
30
512.6
11
-300.005
21
-282.723
31
512.6
0
LINE
8
1
62
1
10
-300.005
20
-282.723
30
512.6
11
-300.004
21
-282.719
31
512.6
0
LINE
8
1
62
1
10
-300.004
20
-282.719
30
512.6
11
-300
21
-282.718
31
512.6
0
LINE
8
1
62
1
10
-300
20
-282.718
30
512.6
11
-294.205
21
-282.718
31
512.6
0
LINE
8
1
62
1
10
-294.205
20
-282.718
30
512.6
11
-294.205
21
-259.651
31
512.6
0
LINE
8
1
62
1
10
-294.205
20
-259.651
30
512.6
11
-300
21
-259.651
31
512.6
0
LINE
8
1
62
1
10
-300
20
-259.651
30
512.6
11
-300.004
21
-259.65
31
512.6
0
LINE
8
1
62
1
10
-300.004
20
-259.65
30
512.6
11
-300.005
21
-259.646
31
512.6
0
LINE
8
1
62
1
10
-300.005
20
-259.646
30
512.6
11
-300.005
21
-236.569
31
512.6
0
LINE
8
1
62
1
10
-300.005
20
-236.569
30
512.6
11
-300.004
21
-236.565
31
512.6
0
LINE
8
1
62
1
10
-300.004
20
-236.565
30
512.6
11
-300
21
-236.564
31
512.6
0
LINE
8
1
62
1
10
-300
20
-236.564
30
512.6
11
-294.205
21
-236.564
31
512.6
0
LINE
8
1
62
1
10
-294.205
20
-236.564
30
512.6
11
-294.205
21
-213.497
31
512.6
0
LINE
8
1
62
1
10
-294.205
20
-213.497
30
512.6
11
-300
21
-213.497
31
512.6
0
LINE
8
1
62
1
10
-300
20
-213.497
30
512.6
11
-300.004
21
-213.496
31
512.6
0
LINE
8
1
62
1
10
-300.004
20
-213.496
30
512.6
11
-300.005
21
-213.492
31
512.6
0
LINE
8
1
62
1
10
-300.005
20
-213.492
30
512.6
11
-300.005
21
-190.415
31
512.6
0
LINE
8
1
62
1
10
-300.005
20
-190.415
30
512.6
11
-300.004
21
-190.411
31
512.6
0
LINE
8
1
62
1
10
-300.004
20
-190.411
30
512.6
11
-300
21
-190.41
31
512.6
0
LINE
8
1
62
1
10
-300
20
-190.41
30
512.6
11
-294.205
21
-190.41
31
512.6
0
LINE
8
1
62
1
10
-294.205
20
-190.41
30
512.6
11
-294.205
21
-167.343
31
512.6
0
LINE
8
1
62
1
10
-294.205
20
-167.343
30
512.6
11
-300
21
-167.343
31
512.6
0
LINE
8
1
62
1
10
-300
20
-167.343
30
512.6
11
-300.004
21
-167.342
31
512.6
0
LINE
8
1
62
1
10
-300.004
20
-167.342
30
512.6
11
-300.005
21
-167.338
31
512.6
0
LINE
8
1
62
1
10
-300.005
20
-167.338
30
512.6
11
-300.005
21
-144.262
31
512.6
0
LINE
8
1
62
1
10
-300.005
20
-144.262
30
512.6
11
-300.004
21
-144.258
31
512.6
0
LINE
8
1
62
1
10
-300.004
20
-144.258
30
512.6
11
-300
21
-144.257
31
512.6
0
LINE
8
1
62
1
10
-300
20
-144.257
30
512.6
11
-294.205
21
-144.257
31
512.6
0
LINE
8
1
62
1
10
-294.205
20
-144.257
30
512.6
11
-294.205
21
-121.19
31
512.6
0
LINE
8
1
62
1
10
-294.205
20
-121.19
30
512.6
11
-300
21
-121.19
31
512.6
0
LINE
8
1
62
1
10
-300
20
-121.19
30
512.6
11
-300.004
21
-121.189
31
512.6
0
LINE
8
1
62
1
10
-300.004
20
-121.189
30
512.6
11
-300.005
21
-121.185
31
512.6
0
LINE
8
1
62
1
10
-300.005
20
-121.185
30
512.6
11
-300.005
21
-98.108
31
512.6
0
LINE
8
1
62
1
10
-300.005
20
-98.108
30
512.6
11
-300.004
21
-98.104
31
512.6
0
LINE
8
1
62
1
10
-300.004
20
-98.104
30
512.6
11
-300
21
-98.103
31
512.6
0
LINE
8
1
62
1
10
-300
20
-98.103
30
512.6
11
-294.205
21
-98.103
31
512.6
0
LINE
8
1
62
1
10
-294.205
20
-98.103
30
512.6
11
-294.205
21
-75.036
31
512.6
0
LINE
8
1
62
1
10
-294.205
20
-75.036
30
512.6
11
-300
21
-75.036
31
512.6
0
LINE
8
1
62
1
10
-300
20
-75.036
30
512.6
11
-300.004
21
-75.034
31
512.6
0
LINE
8
1
62
1
10
-300.004
20
-75.034
30
512.6
11
-300.005
21
-75.031
31
512.6
0
LINE
8
1
62
1
10
-300.005
20
-75.031
30
512.6
11
-300.005
21
-51.954
31
512.6
0
LINE
8
1
62
1
10
-300.005
20
-51.954
30
512.6
11
-300.004
21
-51.95
31
512.6
0
LINE
8
1
62
1
10
-300.004
20
-51.95
30
512.6
11
-300
21
-51.949
31
512.6
0
LINE
8
1
62
1
10
-300
20
-51.949
30
512.6
11
-294.205
21
-51.949
31
512.6
0
LINE
8
1
62
1
10
-294.205
20
-51.949
30
512.6
11
-294.205
21
-28.882
31
512.6
0
LINE
8
1
62
1
10
-294.205
20
-28.882
30
512.6
11
-300
21
-28.882
31
512.6
0
LINE
8
1
62
1
10
-300
20
-28.882
30
512.6
11
-300.004
21
-28.88
31
512.6
0
LINE
8
1
62
1
10
-300.004
20
-28.88
30
512.6
11
-300.005
21
-28.877
31
512.6
0
LINE
8
1
62
1
10
-300.005
20
-28.877
30
512.6
11
-300.005
21
0
31
512.6
0
LINE
8
1
62
1
10
-300.005
20
0
30
512.6
11
-300.004
21
0.004
31
512.6
0
LINE
8
1
62
1
10
-300.004
20
0.004
30
512.6
11
-300
21
0.005
31
512.6
0
LINE
8
1
62
1
10
-300
20
0.005
30
512.6
11
-276.923
21
0.005
31
512.6
0
LINE
8
1
62
1
10
-276.923
20
0.005
30
512.6
11
-276.919
21
0.004
31
512.6
0
LINE
8
1
62
1
10
-276.919
20
0.004
30
512.6
11
-276.918
21
0
31
512.6
0
LINE
8
1
62
1
10
-276.918
20
0
30
512.6
11
-276.918
21
-5.795
31
512.6
0
LINE
8
1
62
1
10
-276.918
20
-5.795
30
512.6
11
-253.851
21
-5.795
31
512.6
0
LINE
8
1
62
1
10
-253.851
20
-5.795
30
512.6
11
-253.851
21
0
31
512.6
0
LINE
8
1
62
1
10
-253.851
20
0
30
512.6
11
-253.85
21
0.004
31
512.6
0
LINE
8
1
62
1
10
-253.85
20
0.004
30
512.6
11
-253.846
21
0.005
31
512.6
0
LINE
8
1
62
1
10
-253.846
20
0.005
30
512.6
11
-230.769
21
0.005
31
512.6
0
LINE
8
1
62
1
10
-230.769
20
0.005
30
512.6
11
-230.765
21
0.004
31
512.6
0
LINE
8
1
62
1
10
-230.765
20
0.004
30
512.6
11
-230.764
21
0
31
512.6
0
LINE
8
1
62
1
10
-230.764
20
0
30
512.6
11
-230.764
21
-5.795
31
512.6
0
LINE
8
1
62
1
10
-230.764
20
-5.795
30
512.6
11
-207.697
21
-5.795
31
512.6
0
LINE
8
1
62
1
10
-207.697
20
-5.795
30
512.6
11
-207.697
21
0
31
512.6
0
LINE
8
1
62
1
10
-207.697
20
0
30
512.6
11
-207.696
21
0.004
31
512.6
0
LINE
8
1
62
1
10
-207.696
20
0.004
30
512.6
11
-207.692
21
0.005
31
512.6
0
LINE
8
1
62
1
10
-207.692
20
0.005
30
512.6
11
-184.615
21
0.005
31
512.6
0
LINE
8
1
62
1
10
-184.615
20
0.005
30
512.6
11
-184.611
21
0.004
31
512.6
0
LINE
8
1
62
1
10
-184.611
20
0.004
30
512.6
11
-184.61
21
0
31
512.6
0
LINE
8
1
62
1
10
-184.61
20
0
30
512.6
11
-184.61
21
-5.795
31
512.6
0
LINE
8
1
62
1
10
-184.61
20
-5.795
30
512.6
11
-161.543
21
-5.795
31
512.6
0
LINE
8
1
62
1
10
-161.543
20
-5.795
30
512.6
11
-161.543
21
0
31
512.6
0
LINE
8
1
62
1
10
-161.543
20
0
30
512.6
11
-161.542
21
0.004
31
512.6
0
LINE
8
1
62
1
10
-161.542
20
0.004
30
512.6
11
-161.538
21
0.005
31
512.6
0
LINE
8
1
62
1
10
-161.538
20
0.005
30
512.6
11
-138.462
21
0.005
31
512.6
0
LINE
8
1
62
1
10
-138.462
20
0.005
30
512.6
11
-138.458
21
0.004
31
512.6
0
LINE
8
1
62
1
10
-138.458
20
0.004
30
512.6
11
-138.457
21
0
31
512.6
0
LINE
8
1
62
1
10
-138.457
20
0
30
512.6
11
-138.457
21
-5.795
31
512.6
0
LINE
8
1
62
1
10
-138.457
20
-5.795
30
512.6
11
-115.39
21
-5.795
31
512.6
0
LINE
8
1
62
1
10
-115.39
20
-5.795
30
512.6
11
-115.39
21
0
31
512.6
0
LINE
8
1
62
1
10
-115.39
20
0
30
512.6
11
-115.389
21
0.004
31
512.6
0
LINE
8
1
62
1
10
-115.389
20
0.004
30
512.6
11
-115.385
21
0.005
31
512.6
0
LINE
8
1
62
1
10
-115.385
20
0.005
30
512.6
11
-92.308
21
0.005
31
512.6
0
LINE
8
1
62
1
10
-92.308
20
0.005
30
512.6
11
-92.304
21
0.004
31
512.6
0
LINE
8
1
62
1
10
-92.304
20
0.004
30
512.6
11
-92.303
21
0
31
512.6
0
LINE
8
1
62
1
10
-92.303
20
0
30
512.6
11
-92.303
21
-5.795
31
512.6
0
LINE
8
1
62
1
10
-92.303
20
-5.795
30
512.6
11
-69.236
21
-5.795
31
512.6
0
LINE
8
1
62
1
10
-69.236
20
-5.795
30
512.6
11
-69.236
21
0
31
512.6
0
LINE
8
1
62
1
10
-69.236
20
0
30
512.6
11
-69.234
21
0.004
31
512.6
0
LINE
8
1
62
1
10
-69.234
20
0.004
30
512.6
11
-69.231
21
0.005
31
512.6
0
LINE
8
1
62
1
10
-69.231
20
0.005
30
512.6
11
-46.154
21
0.005
31
512.6
0
LINE
8
1
62
1
10
-46.154
20
0.005
30
512.6
11
-46.15
21
0.004
31
512.6
0
LINE
8
1
62
1
10
-46.15
20
0.004
30
512.6
11
-46.149
21
0
31
512.6
0
LINE
8
1
62
1
10
-46.149
20
0
30
512.6
11
-46.149
21
-5.795
31
512.6
0
LINE
8
1
62
1
10
-46.149
20
-5.795
30
512.6
11
-23.082
21
-5.795
31
512.6
0
LINE
8
1
62
1
10
-23.082
20
-5.795
30
512.6
11
-23.082
21
0
31
512.6
0
LINE
8
1
62
1
10
-23.082
20
0
30
512.6
11
-23.08
21
0.004
31
512.6
0
LINE
8
1
62
1
10
-23.08
20
0.004
30
512.6
11
-23.077
21
0.005
31
512.6
0
LINE
8
1
62
1
10
-23.077
20
0.005
30
512.6
11
5.8
21
0.005
31
512.6
0
LINE
8
1
62
1
10
5.8
20
0.005
30
512.6
11
5.804
21
0.004
31
512.6
0
LINE
8
1
62
1
10
5.804
20
0.004
30
512.6
11
5.805
21
0
31
512.6
0
LINE
8
1
62
1
10
5.805
20
0
30
512.6
11
5.805
21
-28.877
31
512.6
0
LINE
8
1
62
1
10
5.805
20
-28.877
30
512.6
11
5.804
21
-28.88
31
512.6
0
LINE
8
1
62
1
10
5.804
20
-28.88
30
512.6
11
5.8
21
-28.882
31
512.6
0
LINE
8
1
62
1
10
5.8
20
-28.882
30
512.6
11
0.005
21
-28.882
31
512.6
0
LINE
8
1
62
1
10
0.005
20
-28.882
30
512.6
11
0.005
21
-51.949
31
512.6
0
LINE
8
1
62
1
10
0.005
20
-51.949
30
512.6
11
5.8
21
-51.949
31
512.6
0
LINE
8
1
62
1
10
5.8
20
-51.949
30
512.6
11
5.804
21
-51.95
31
512.6
0
LINE
8
1
62
1
10
5.804
20
-51.95
30
512.6
11
5.805
21
-51.954
31
512.6
0
LINE
8
1
62
1
10
5.805
20
-51.954
30
512.6
11
5.805
21
-75.031
31
512.6
0
LINE
8
1
62
1
10
5.805
20
-75.031
30
512.6
11
5.804
21
-75.034
31
512.6
0
LINE
8
1
62
1
10
5.804
20
-75.034
30
512.6
11
5.8
21
-75.036
31
512.6
0
LINE
8
1
62
1
10
5.8
20
-75.036
30
512.6
11
0.005
21
-75.036
31
512.6
0
LINE
8
1
62
1
10
0.005
20
-75.036
30
512.6
11
0.005
21
-98.103
31
512.6
0
LINE
8
1
62
1
10
0.005
20
-98.103
30
512.6
11
5.8
21
-98.103
31
512.6
0
LINE
8
1
62
1
10
5.8
20
-98.103
30
512.6
11
5.804
21
-98.104
31
512.6
0
LINE
8
1
62
1
10
5.804
20
-98.104
30
512.6
11
5.805
21
-98.108
31
512.6
0
LINE
8
1
62
1
10
5.805
20
-98.108
30
512.6
11
5.805
21
-121.185
31
512.6
0
LINE
8
1
62
1
10
5.805
20
-121.185
30
512.6
11
5.804
21
-121.189
31
512.6
0
LINE
8
1
62
1
10
5.804
20
-121.189
30
512.6
11
5.8
21
-121.19
31
512.6
0
LINE
8
1
62
1
10
5.8
20
-121.19
30
512.6
11
0.005
21
-121.19
31
512.6
0
LINE
8
1
62
1
10
0.005
20
-121.19
30
512.6
11
0.005
21
-144.257
31
512.6
0
LINE
8
1
62
1
10
0.005
20
-144.257
30
512.6
11
5.8
21
-144.257
31
512.6
0
LINE
8
1
62
1
10
5.8
20
-144.257
30
512.6
11
5.804
21
-144.258
31
512.6
0
LINE
8
1
62
1
10
5.804
20
-144.258
30
512.6
11
5.805
21
-144.262
31
512.6
0
LINE
8
1
62
1
10
5.805
20
-144.262
30
512.6
11
5.805
21
-167.338
31
512.6
0
LINE
8
1
62
1
10
5.805
20
-167.338
30
512.6
11
5.804
21
-167.342
31
512.6
0
LINE
8
1
62
1
10
5.804
20
-167.342
30
512.6
11
5.8
21
-167.343
31
512.6
0
LINE
8
1
62
1
10
5.8
20
-167.343
30
512.6
11
0.005
21
-167.343
31
512.6
0
LINE
8
1
62
1
10
0.005
20
-167.343
30
512.6
11
0.005
21
-190.41
31
512.6
0
LINE
8
1
62
1
10
0.005
20
-190.41
30
512.6
11
5.8
21
-190.41
31
512.6
0
LINE
8
1
62
1
10
5.8
20
-190.41
30
512.6
11
5.804
21
-190.411
31
512.6
0
LINE
8
1
62
1
10
5.804
20
-190.411
30
512.6
11
5.805
21
-190.415
31
512.6
0
LINE
8
1
62
1
10
5.805
20
-190.415
30
512.6
11
5.805
21
-213.492
31
512.6
0
LINE
8
1
62
1
10
5.805
20
-213.492
30
512.6
11
5.804
21
-213.496
31
512.6
0
LINE
8
1
62
1
10
5.804
20
-213.496
30
512.6
11
5.8
21
-213.497
31
512.6
0
LINE
8
1
62
1
10
5.8
20
-213.497
30
512.6
11
0.005
21
-213.497
31
512.6
0
LINE
8
1
62
1
10
0.005
20
-213.497
30
512.6
11
0.005
21
-236.564
31
512.6
0
LINE
8
1
62
1
10
0.005
20
-236.564
30
512.6
11
5.8
21
-236.564
31
512.6
0
LINE
8
1
62
1
10
5.8
20
-236.564
30
512.6
11
5.804
21
-236.565
31
512.6
0
LINE
8
1
62
1
10
5.804
20
-236.565
30
512.6
11
5.805
21
-236.569
31
512.6
0
LINE
8
1
62
1
10
5.805
20
-236.569
30
512.6
11
5.805
21
-259.646
31
512.6
0
LINE
8
1
62
1
10
5.805
20
-259.646
30
512.6
11
5.804
21
-259.65
31
512.6
0
LINE
8
1
62
1
10
5.804
20
-259.65
30
512.6
11
5.8
21
-259.651
31
512.6
0
LINE
8
1
62
1
10
5.8
20
-259.651
30
512.6
11
0.005
21
-259.651
31
512.6
0
LINE
8
1
62
1
10
0.005
20
-259.651
30
512.6
11
0.005
21
-282.718
31
512.6
0
LINE
8
1
62
1
10
0.005
20
-282.718
30
512.6
11
5.8
21
-282.718
31
512.6
0
LINE
8
1
62
1
10
5.8
20
-282.718
30
512.6
11
5.804
21
-282.719
31
512.6
0
LINE
8
1
62
1
10
5.804
20
-282.719
30
512.6
11
5.805
21
-282.723
31
512.6
0
LINE
8
1
62
1
10
5.805
20
-282.723
30
512.6
11
5.805
21
-311.6
31
512.6
0
LINE
8
1
62
1
10
5.805
20
-311.6
30
512.6
11
5.804
21
-311.604
31
512.6
0
LINE
8
1
62
1
10
5.804
20
-311.604
30
512.6
11
5.8
21
-311.605
31
512.6
0
LINE
8
1
62
1
10
5.8
20
-311.605
30
512.6
11
-23.077
21
-311.605
31
512.6
0
LINE
8
1
62
1
10
-23.077
20
-311.605
30
512.6
11
-23.08
21
-311.604
31
512.6
0
LINE
8
1
62
1
10
-23.08
20
-311.604
30
512.6
11
-23.082
21
-311.6
31
512.6
0
LINE
8
1
62
1
10
-23.082
20
-311.6
30
512.6
11
-23.082
21
-305.805
31
512.6
0
LINE
8
1
62
1
10
-23.082
20
-305.805
30
512.6
11
-46.149
21
-305.805
31
512.6
0
LINE
8
1
62
1
10
-46.149
20
-305.805
30
512.6
11
-46.149
21
-311.6
31
512.6
0
LINE
8
1
62
1
10
-46.149
20
-311.6
30
512.6
11
-46.15
21
-311.604
31
512.6
0
LINE
8
1
62
1
10
-46.15
20
-311.604
30
512.6
11
-46.154
21
-311.605
31
512.6
0
LINE
8
1
62
1
10
-46.154
20
-311.605
30
512.6
11
-69.231
21
-311.605
31
512.6
0
LINE
8
1
62
1
10
-69.231
20
-311.605
30
512.6
11
-69.234
21
-311.604
31
512.6
0
LINE
8
1
62
1
10
-69.234
20
-311.604
30
512.6
11
-69.236
21
-311.6
31
512.6
0
LINE
8
1
62
1
10
-69.236
20
-311.6
30
512.6
11
-69.236
21
-305.805
31
512.6
0
LINE
8
1
62
1
10
-69.236
20
-305.805
30
512.6
11
-92.303
21
-305.805
31
512.6
0
LINE
8
1
62
1
10
-92.303
20
-305.805
30
512.6
11
-92.303
21
-311.6
31
512.6
0
LINE
8
1
62
1
10
-92.303
20
-311.6
30
512.6
11
-92.304
21
-311.604
31
512.6
0
LINE
8
1
62
1
10
-92.304
20
-311.604
30
512.6
11
-92.308
21
-311.605
31
512.6
0
LINE
8
1
62
1
10
-92.308
20
-311.605
30
512.6
11
-115.385
21
-311.605
31
512.6
0
LINE
8
1
62
1
10
-115.385
20
-311.605
30
512.6
11
-115.389
21
-311.604
31
512.6
0
LINE
8
1
62
1
10
-115.389
20
-311.604
30
512.6
11
-115.39
21
-311.6
31
512.6
0
LINE
8
1
62
1
10
-115.39
20
-311.6
30
512.6
11
-115.39
21
-305.805
31
512.6
0
LINE
8
1
62
1
10
-115.39
20
-305.805
30
512.6
11
-138.457
21
-305.805
31
512.6
0
LINE
8
1
62
1
10
-138.457
20
-305.805
30
512.6
11
-138.457
21
-311.6
31
512.6
0
LINE
8
1
62
1
10
-138.457
20
-311.6
30
512.6
11
-138.458
21
-311.604
31
512.6
0
LINE
8
1
62
1
10
-138.458
20
-311.604
30
512.6
11
-138.462
21
-311.605
31
512.6
0
LINE
8
1
62
1
10
-138.462
20
-311.605
30
512.6
11
-161.538
21
-311.605
31
512.6
0
LINE
8
1
62
1
10
-161.538
20
-311.605
30
512.6
11
-161.542
21
-311.604
31
512.6
0
LINE
8
1
62
1
10
-161.542
20
-311.604
30
512.6
11
-161.543
21
-311.6
31
512.6
0
LINE
8
1
62
1
10
-161.543
20
-311.6
30
512.6
11
-161.543
21
-305.805
31
512.6
0
LINE
8
1
62
1
10
-161.543
20
-305.805
30
512.6
11
-184.61
21
-305.805
31
512.6
0
LINE
8
1
62
1
10
-184.61
20
-305.805
30
512.6
11
-184.61
21
-311.6
31
512.6
0
LINE
8
1
62
1
10
-184.61
20
-311.6
30
512.6
11
-184.611
21
-311.604
31
512.6
0
LINE
8
1
62
1
10
-184.611
20
-311.604
30
512.6
11
-184.615
21
-311.605
31
512.6
0
LINE
8
1
62
1
10
-184.615
20
-311.605
30
512.6
11
-207.692
21
-311.605
31
512.6
0
LINE
8
1
62
1
10
-207.692
20
-311.605
30
512.6
11
-207.696
21
-311.604
31
512.6
0
LINE
8
1
62
1
10
-207.696
20
-311.604
30
512.6
11
-207.697
21
-311.6
31
512.6
0
LINE
8
1
62
1
10
-207.697
20
-311.6
30
512.6
11
-207.697
21
-305.805
31
512.6
0
LINE
8
1
62
1
10
-207.697
20
-305.805
30
512.6
11
-230.764
21
-305.805
31
512.6
0
LINE
8
1
62
1
10
-230.764
20
-305.805
30
512.6
11
-230.764
21
-311.6
31
512.6
0
LINE
8
1
62
1
10
-230.764
20
-311.6
30
512.6
11
-230.765
21
-311.604
31
512.6
0
LINE
8
1
62
1
10
-230.765
20
-311.604
30
512.6
11
-230.769
21
-311.605
31
512.6
0
LINE
8
1
62
1
10
-230.769
20
-311.605
30
512.6
11
-253.846
21
-311.605
31
512.6
0
LINE
8
1
62
1
10
-253.846
20
-311.605
30
512.6
11
-253.85
21
-311.604
31
512.6
0
LINE
8
1
62
1
10
-253.85
20
-311.604
30
512.6
11
-253.851
21
-311.6
31
512.6
0
LINE
8
1
62
1
10
-253.851
20
-311.6
30
512.6
11
-253.851
21
-305.805
31
512.6
0
LINE
8
1
62
1
10
-253.851
20
-305.805
30
512.6
11
-276.918
21
-305.805
31
512.6
0
LINE
8
1
62
1
10
-276.918
20
-305.805
30
512.6
11
-276.918
21
-311.6
31
512.6
0
LINE
8
1
62
1
10
-276.918
20
-311.6
30
512.6
11
-276.919
21
-311.604
31
512.6
0
LINE
8
1
62
1
10
-276.919
20
-311.604
30
512.6
11
-276.923
21
-311.605
31
512.6
0
LINE
8
1
62
1
10
-276.923
20
-311.605
30
512.6
11
-300
21
-311.605
31
512.6
0
LINE
8
1
62
2
10
-300
20
-311.605
30
512.6
11
-300.025
21
-311.648
31
512.6
0
LINE
8
1
62
3
10
-300.025
20
-311.648
30
512.6
11
-300.025
21
-311.648
31
527.6
0
ENDSEC
0
EOF
