999
Generated by Autodesk CAM - http://cam.autodesk.com
0
SECTION
2
HEADER
9
$ACADVER
1
AC1006
9
$ANGBASE
50
0
9
$ANGDIR
70
0
0
ENDSEC
0
SECTION
2
BLOCKS
0
ENDSEC
9
$EXTMIN
10
-255.805
20
-2.405
30
0
9
$EXTMAX
10
255.805
20
309.205
30
15
0
SECTION
2
ENTITIES
0
LINE
8
1
62
3
10
178.661
20
3.352
30
15
11
178.661
21
3.352
31
15
0
LINE
8
1
62
3
10
178.661
20
3.352
30
15
11
178.661
21
3.352
31
0
0
LINE
8
1
62
2
10
178.661
20
3.352
30
0
11
178.636
21
3.395
31
0
0
LINE
8
1
62
1
10
178.636
20
3.395
30
0
11
178.586
21
3.395
31
0
0
LINE
8
1
62
1
10
178.586
20
3.395
30
0
11
178.576
21
3.395
31
0
0
LINE
8
1
62
1
10
178.576
20
3.395
30
0
11
178.576
21
-2.4
31
0
0
LINE
8
1
62
1
10
178.576
20
-2.4
30
0
11
178.575
21
-2.404
31
0
0
LINE
8
1
62
1
10
178.575
20
-2.404
30
0
11
178.571
21
-2.405
31
0
0
LINE
8
1
62
1
10
178.571
20
-2.405
30
0
11
154.762
21
-2.405
31
0
0
LINE
8
1
62
1
10
154.762
20
-2.405
30
0
11
154.758
21
-2.404
31
0
0
LINE
8
1
62
1
10
154.758
20
-2.404
30
0
11
154.757
21
-2.4
31
0
0
LINE
8
1
62
1
10
154.757
20
-2.4
30
0
11
154.757
21
3.395
31
0
0
LINE
8
1
62
1
10
154.757
20
3.395
30
0
11
130.957
21
3.395
31
0
0
LINE
8
1
62
1
10
130.957
20
3.395
30
0
11
130.957
21
-2.4
31
0
0
LINE
8
1
62
1
10
130.957
20
-2.4
30
0
11
130.956
21
-2.404
31
0
0
LINE
8
1
62
1
10
130.956
20
-2.404
30
0
11
130.952
21
-2.405
31
0
0
LINE
8
1
62
1
10
130.952
20
-2.405
30
0
11
107.143
21
-2.405
31
0
0
LINE
8
1
62
1
10
107.143
20
-2.405
30
0
11
107.139
21
-2.404
31
0
0
LINE
8
1
62
1
10
107.139
20
-2.404
30
0
11
107.138
21
-2.4
31
0
0
LINE
8
1
62
1
10
107.138
20
-2.4
30
0
11
107.138
21
3.395
31
0
0
LINE
8
1
62
1
10
107.138
20
3.395
30
0
11
83.338
21
3.395
31
0
0
LINE
8
1
62
1
10
83.338
20
3.395
30
0
11
83.338
21
-2.4
31
0
0
LINE
8
1
62
1
10
83.338
20
-2.4
30
0
11
83.337
21
-2.404
31
0
0
LINE
8
1
62
1
10
83.337
20
-2.404
30
0
11
83.333
21
-2.405
31
0
0
LINE
8
1
62
1
10
83.333
20
-2.405
30
0
11
59.524
21
-2.405
31
0
0
LINE
8
1
62
1
10
59.524
20
-2.405
30
0
11
59.52
21
-2.404
31
0
0
LINE
8
1
62
1
10
59.52
20
-2.404
30
0
11
59.519
21
-2.4
31
0
0
LINE
8
1
62
1
10
59.519
20
-2.4
30
0
11
59.519
21
3.395
31
0
0
LINE
8
1
62
1
10
59.519
20
3.395
30
0
11
35.719
21
3.395
31
0
0
LINE
8
1
62
1
10
35.719
20
3.395
30
0
11
35.719
21
-2.4
31
0
0
LINE
8
1
62
1
10
35.719
20
-2.4
30
0
11
35.718
21
-2.404
31
0
0
LINE
8
1
62
1
10
35.718
20
-2.404
30
0
11
35.714
21
-2.405
31
0
0
LINE
8
1
62
1
10
35.714
20
-2.405
30
0
11
11.905
21
-2.405
31
0
0
LINE
8
1
62
1
10
11.905
20
-2.405
30
0
11
11.901
21
-2.404
31
0
0
LINE
8
1
62
1
10
11.901
20
-2.404
30
0
11
11.9
21
-2.4
31
0
0
LINE
8
1
62
1
10
11.9
20
-2.4
30
0
11
11.9
21
3.395
31
0
0
LINE
8
1
62
1
10
11.9
20
3.395
30
0
11
-11.9
21
3.395
31
0
0
LINE
8
1
62
1
10
-11.9
20
3.395
30
0
11
-11.9
21
-2.4
31
0
0
LINE
8
1
62
1
10
-11.9
20
-2.4
30
0
11
-11.901
21
-2.404
31
0
0
LINE
8
1
62
1
10
-11.901
20
-2.404
30
0
11
-11.905
21
-2.405
31
0
0
LINE
8
1
62
1
10
-11.905
20
-2.405
30
0
11
-35.714
21
-2.405
31
0
0
LINE
8
1
62
1
10
-35.714
20
-2.405
30
0
11
-35.718
21
-2.404
31
0
0
LINE
8
1
62
1
10
-35.718
20
-2.404
30
0
11
-35.719
21
-2.4
31
0
0
LINE
8
1
62
1
10
-35.719
20
-2.4
30
0
11
-35.719
21
3.395
31
0
0
LINE
8
1
62
1
10
-35.719
20
3.395
30
0
11
-59.519
21
3.395
31
0
0
LINE
8
1
62
1
10
-59.519
20
3.395
30
0
11
-59.519
21
-2.4
31
0
0
LINE
8
1
62
1
10
-59.519
20
-2.4
30
0
11
-59.52
21
-2.404
31
0
0
LINE
8
1
62
1
10
-59.52
20
-2.404
30
0
11
-59.524
21
-2.405
31
0
0
LINE
8
1
62
1
10
-59.524
20
-2.405
30
0
11
-83.333
21
-2.405
31
0
0
LINE
8
1
62
1
10
-83.333
20
-2.405
30
0
11
-83.337
21
-2.404
31
0
0
LINE
8
1
62
1
10
-83.337
20
-2.404
30
0
11
-83.338
21
-2.4
31
0
0
LINE
8
1
62
1
10
-83.338
20
-2.4
30
0
11
-83.338
21
3.395
31
0
0
LINE
8
1
62
1
10
-83.338
20
3.395
30
0
11
-107.138
21
3.395
31
0
0
LINE
8
1
62
1
10
-107.138
20
3.395
30
0
11
-107.138
21
-2.4
31
0
0
LINE
8
1
62
1
10
-107.138
20
-2.4
30
0
11
-107.139
21
-2.404
31
0
0
LINE
8
1
62
1
10
-107.139
20
-2.404
30
0
11
-107.143
21
-2.405
31
0
0
LINE
8
1
62
1
10
-107.143
20
-2.405
30
0
11
-130.952
21
-2.405
31
0
0
LINE
8
1
62
1
10
-130.952
20
-2.405
30
0
11
-130.956
21
-2.404
31
0
0
LINE
8
1
62
1
10
-130.956
20
-2.404
30
0
11
-130.957
21
-2.4
31
0
0
LINE
8
1
62
1
10
-130.957
20
-2.4
30
0
11
-130.957
21
3.395
31
0
0
LINE
8
1
62
1
10
-130.957
20
3.395
30
0
11
-154.757
21
3.395
31
0
0
LINE
8
1
62
1
10
-154.757
20
3.395
30
0
11
-154.757
21
-2.4
31
0
0
LINE
8
1
62
1
10
-154.757
20
-2.4
30
0
11
-154.758
21
-2.404
31
0
0
LINE
8
1
62
1
10
-154.758
20
-2.404
30
0
11
-154.762
21
-2.405
31
0
0
LINE
8
1
62
1
10
-154.762
20
-2.405
30
0
11
-178.571
21
-2.405
31
0
0
LINE
8
1
62
1
10
-178.571
20
-2.405
30
0
11
-178.575
21
-2.404
31
0
0
LINE
8
1
62
1
10
-178.575
20
-2.404
30
0
11
-178.576
21
-2.4
31
0
0
LINE
8
1
62
1
10
-178.576
20
-2.4
30
0
11
-178.576
21
3.395
31
0
0
LINE
8
1
62
1
10
-178.576
20
3.395
30
0
11
-202.376
21
3.395
31
0
0
LINE
8
1
62
1
10
-202.376
20
3.395
30
0
11
-202.376
21
-2.4
31
0
0
LINE
8
1
62
1
10
-202.376
20
-2.4
30
0
11
-202.377
21
-2.404
31
0
0
LINE
8
1
62
1
10
-202.377
20
-2.404
30
0
11
-202.381
21
-2.405
31
0
0
LINE
8
1
62
1
10
-202.381
20
-2.405
30
0
11
-226.19
21
-2.405
31
0
0
LINE
8
1
62
1
10
-226.19
20
-2.405
30
0
11
-226.194
21
-2.404
31
0
0
LINE
8
1
62
1
10
-226.194
20
-2.404
30
0
11
-226.195
21
-2.4
31
0
0
LINE
8
1
62
1
10
-226.195
20
-2.4
30
0
11
-226.195
21
3.395
31
0
0
LINE
8
1
62
1
10
-226.195
20
3.395
30
0
11
-250
21
3.395
31
0
0
LINE
8
1
62
1
10
-250
20
3.395
30
0
11
-250.004
21
3.396
31
0
0
LINE
8
1
62
1
10
-250.004
20
3.396
30
0
11
-250.005
21
3.4
31
0
0
LINE
8
1
62
1
10
-250.005
20
3.4
30
0
11
-250.005
21
26.472
31
0
0
LINE
8
1
62
1
10
-250.005
20
26.472
30
0
11
-255.8
21
26.472
31
0
0
LINE
8
1
62
1
10
-255.8
20
26.472
30
0
11
-255.804
21
26.473
31
0
0
LINE
8
1
62
1
10
-255.804
20
26.473
30
0
11
-255.805
21
26.477
31
0
0
LINE
8
1
62
1
10
-255.805
20
26.477
30
0
11
-255.805
21
49.554
31
0
0
LINE
8
1
62
1
10
-255.805
20
49.554
30
0
11
-255.804
21
49.557
31
0
0
LINE
8
1
62
1
10
-255.804
20
49.557
30
0
11
-255.8
21
49.559
31
0
0
LINE
8
1
62
1
10
-255.8
20
49.559
30
0
11
-250.005
21
49.559
31
0
0
LINE
8
1
62
1
10
-250.005
20
49.559
30
0
11
-250.005
21
72.626
31
0
0
LINE
8
1
62
1
10
-250.005
20
72.626
30
0
11
-255.8
21
72.626
31
0
0
LINE
8
1
62
1
10
-255.8
20
72.626
30
0
11
-255.804
21
72.627
31
0
0
LINE
8
1
62
1
10
-255.804
20
72.627
30
0
11
-255.805
21
72.631
31
0
0
LINE
8
1
62
1
10
-255.805
20
72.631
30
0
11
-255.805
21
95.708
31
0
0
LINE
8
1
62
1
10
-255.805
20
95.708
30
0
11
-255.804
21
95.711
31
0
0
LINE
8
1
62
1
10
-255.804
20
95.711
30
0
11
-255.8
21
95.713
31
0
0
LINE
8
1
62
1
10
-255.8
20
95.713
30
0
11
-250.005
21
95.713
31
0
0
LINE
8
1
62
1
10
-250.005
20
95.713
30
0
11
-250.005
21
118.78
31
0
0
LINE
8
1
62
1
10
-250.005
20
118.78
30
0
11
-255.8
21
118.78
31
0
0
LINE
8
1
62
1
10
-255.8
20
118.78
30
0
11
-255.804
21
118.781
31
0
0
LINE
8
1
62
1
10
-255.804
20
118.781
30
0
11
-255.805
21
118.785
31
0
0
LINE
8
1
62
1
10
-255.805
20
118.785
30
0
11
-255.805
21
141.862
31
0
0
LINE
8
1
62
1
10
-255.805
20
141.862
30
0
11
-255.804
21
141.866
31
0
0
LINE
8
1
62
1
10
-255.804
20
141.866
30
0
11
-255.8
21
141.867
31
0
0
LINE
8
1
62
1
10
-255.8
20
141.867
30
0
11
-250.005
21
141.867
31
0
0
LINE
8
1
62
1
10
-250.005
20
141.867
30
0
11
-250.005
21
164.933
31
0
0
LINE
8
1
62
1
10
-250.005
20
164.933
30
0
11
-255.8
21
164.933
31
0
0
LINE
8
1
62
1
10
-255.8
20
164.933
30
0
11
-255.804
21
164.934
31
0
0
LINE
8
1
62
1
10
-255.804
20
164.934
30
0
11
-255.805
21
164.938
31
0
0
LINE
8
1
62
1
10
-255.805
20
164.938
30
0
11
-255.805
21
188.015
31
0
0
LINE
8
1
62
1
10
-255.805
20
188.015
30
0
11
-255.804
21
188.019
31
0
0
LINE
8
1
62
1
10
-255.804
20
188.019
30
0
11
-255.8
21
188.02
31
0
0
LINE
8
1
62
1
10
-255.8
20
188.02
30
0
11
-250.005
21
188.02
31
0
0
LINE
8
1
62
1
10
-250.005
20
188.02
30
0
11
-250.005
21
211.087
31
0
0
LINE
8
1
62
1
10
-250.005
20
211.087
30
0
11
-255.8
21
211.087
31
0
0
LINE
8
1
62
1
10
-255.8
20
211.087
30
0
11
-255.804
21
211.088
31
0
0
LINE
8
1
62
1
10
-255.804
20
211.088
30
0
11
-255.805
21
211.092
31
0
0
LINE
8
1
62
1
10
-255.805
20
211.092
30
0
11
-255.805
21
234.169
31
0
0
LINE
8
1
62
1
10
-255.805
20
234.169
30
0
11
-255.804
21
234.173
31
0
0
LINE
8
1
62
1
10
-255.804
20
234.173
30
0
11
-255.8
21
234.174
31
0
0
LINE
8
1
62
1
10
-255.8
20
234.174
30
0
11
-250.005
21
234.174
31
0
0
LINE
8
1
62
1
10
-250.005
20
234.174
30
0
11
-250.005
21
257.241
31
0
0
LINE
8
1
62
1
10
-250.005
20
257.241
30
0
11
-255.8
21
257.241
31
0
0
LINE
8
1
62
1
10
-255.8
20
257.241
30
0
11
-255.804
21
257.242
31
0
0
LINE
8
1
62
1
10
-255.804
20
257.242
30
0
11
-255.805
21
257.246
31
0
0
LINE
8
1
62
1
10
-255.805
20
257.246
30
0
11
-255.805
21
280.323
31
0
0
LINE
8
1
62
1
10
-255.805
20
280.323
30
0
11
-255.804
21
280.327
31
0
0
LINE
8
1
62
1
10
-255.804
20
280.327
30
0
11
-255.8
21
280.328
31
0
0
LINE
8
1
62
1
10
-255.8
20
280.328
30
0
11
-250.005
21
280.328
31
0
0
LINE
8
1
62
1
10
-250.005
20
280.328
30
0
11
-250.005
21
303.4
31
0
0
LINE
8
1
62
1
10
-250.005
20
303.4
30
0
11
-250.004
21
303.404
31
0
0
LINE
8
1
62
1
10
-250.004
20
303.404
30
0
11
-250
21
303.405
31
0
0
LINE
8
1
62
1
10
-250
20
303.405
30
0
11
-226.195
21
303.405
31
0
0
LINE
8
1
62
1
10
-226.195
20
303.405
30
0
11
-226.195
21
309.2
31
0
0
LINE
8
1
62
1
10
-226.195
20
309.2
30
0
11
-226.194
21
309.204
31
0
0
LINE
8
1
62
1
10
-226.194
20
309.204
30
0
11
-226.19
21
309.205
31
0
0
LINE
8
1
62
1
10
-226.19
20
309.205
30
0
11
-202.381
21
309.205
31
0
0
LINE
8
1
62
1
10
-202.381
20
309.205
30
0
11
-202.377
21
309.204
31
0
0
LINE
8
1
62
1
10
-202.377
20
309.204
30
0
11
-202.376
21
309.2
31
0
0
LINE
8
1
62
1
10
-202.376
20
309.2
30
0
11
-202.376
21
303.405
31
0
0
LINE
8
1
62
1
10
-202.376
20
303.405
30
0
11
-178.576
21
303.405
31
0
0
LINE
8
1
62
1
10
-178.576
20
303.405
30
0
11
-178.576
21
309.2
31
0
0
LINE
8
1
62
1
10
-178.576
20
309.2
30
0
11
-178.575
21
309.204
31
0
0
LINE
8
1
62
1
10
-178.575
20
309.204
30
0
11
-178.571
21
309.205
31
0
0
LINE
8
1
62
1
10
-178.571
20
309.205
30
0
11
-154.762
21
309.205
31
0
0
LINE
8
1
62
1
10
-154.762
20
309.205
30
0
11
-154.758
21
309.204
31
0
0
LINE
8
1
62
1
10
-154.758
20
309.204
30
0
11
-154.757
21
309.2
31
0
0
LINE
8
1
62
1
10
-154.757
20
309.2
30
0
11
-154.757
21
303.405
31
0
0
LINE
8
1
62
1
10
-154.757
20
303.405
30
0
11
-130.957
21
303.405
31
0
0
LINE
8
1
62
1
10
-130.957
20
303.405
30
0
11
-130.957
21
309.2
31
0
0
LINE
8
1
62
1
10
-130.957
20
309.2
30
0
11
-130.956
21
309.204
31
0
0
LINE
8
1
62
1
10
-130.956
20
309.204
30
0
11
-130.952
21
309.205
31
0
0
LINE
8
1
62
1
10
-130.952
20
309.205
30
0
11
-107.143
21
309.205
31
0
0
LINE
8
1
62
1
10
-107.143
20
309.205
30
0
11
-107.139
21
309.204
31
0
0
LINE
8
1
62
1
10
-107.139
20
309.204
30
0
11
-107.138
21
309.2
31
0
0
LINE
8
1
62
1
10
-107.138
20
309.2
30
0
11
-107.138
21
303.405
31
0
0
LINE
8
1
62
1
10
-107.138
20
303.405
30
0
11
-83.338
21
303.405
31
0
0
LINE
8
1
62
1
10
-83.338
20
303.405
30
0
11
-83.338
21
309.2
31
0
0
LINE
8
1
62
1
10
-83.338
20
309.2
30
0
11
-83.337
21
309.204
31
0
0
LINE
8
1
62
1
10
-83.337
20
309.204
30
0
11
-83.333
21
309.205
31
0
0
LINE
8
1
62
1
10
-83.333
20
309.205
30
0
11
-59.524
21
309.205
31
0
0
LINE
8
1
62
1
10
-59.524
20
309.205
30
0
11
-59.52
21
309.204
31
0
0
LINE
8
1
62
1
10
-59.52
20
309.204
30
0
11
-59.519
21
309.2
31
0
0
LINE
8
1
62
1
10
-59.519
20
309.2
30
0
11
-59.519
21
303.405
31
0
0
LINE
8
1
62
1
10
-59.519
20
303.405
30
0
11
-35.719
21
303.405
31
0
0
LINE
8
1
62
1
10
-35.719
20
303.405
30
0
11
-35.719
21
309.2
31
0
0
LINE
8
1
62
1
10
-35.719
20
309.2
30
0
11
-35.718
21
309.204
31
0
0
LINE
8
1
62
1
10
-35.718
20
309.204
30
0
11
-35.714
21
309.205
31
0
0
LINE
8
1
62
1
10
-35.714
20
309.205
30
0
11
-11.905
21
309.205
31
0
0
LINE
8
1
62
1
10
-11.905
20
309.205
30
0
11
-11.901
21
309.204
31
0
0
LINE
8
1
62
1
10
-11.901
20
309.204
30
0
11
-11.9
21
309.2
31
0
0
LINE
8
1
62
1
10
-11.9
20
309.2
30
0
11
-11.9
21
303.405
31
0
0
LINE
8
1
62
1
10
-11.9
20
303.405
30
0
11
11.9
21
303.405
31
0
0
LINE
8
1
62
1
10
11.9
20
303.405
30
0
11
11.9
21
309.2
31
0
0
LINE
8
1
62
1
10
11.9
20
309.2
30
0
11
11.901
21
309.204
31
0
0
LINE
8
1
62
1
10
11.901
20
309.204
30
0
11
11.905
21
309.205
31
0
0
LINE
8
1
62
1
10
11.905
20
309.205
30
0
11
35.714
21
309.205
31
0
0
LINE
8
1
62
1
10
35.714
20
309.205
30
0
11
35.718
21
309.204
31
0
0
LINE
8
1
62
1
10
35.718
20
309.204
30
0
11
35.719
21
309.2
31
0
0
LINE
8
1
62
1
10
35.719
20
309.2
30
0
11
35.719
21
303.405
31
0
0
LINE
8
1
62
1
10
35.719
20
303.405
30
0
11
59.519
21
303.405
31
0
0
LINE
8
1
62
1
10
59.519
20
303.405
30
0
11
59.519
21
309.2
31
0
0
LINE
8
1
62
1
10
59.519
20
309.2
30
0
11
59.52
21
309.204
31
0
0
LINE
8
1
62
1
10
59.52
20
309.204
30
0
11
59.524
21
309.205
31
0
0
LINE
8
1
62
1
10
59.524
20
309.205
30
0
11
83.333
21
309.205
31
0
0
LINE
8
1
62
1
10
83.333
20
309.205
30
0
11
83.337
21
309.204
31
0
0
LINE
8
1
62
1
10
83.337
20
309.204
30
0
11
83.338
21
309.2
31
0
0
LINE
8
1
62
1
10
83.338
20
309.2
30
0
11
83.338
21
303.405
31
0
0
LINE
8
1
62
1
10
83.338
20
303.405
30
0
11
107.138
21
303.405
31
0
0
LINE
8
1
62
1
10
107.138
20
303.405
30
0
11
107.138
21
309.2
31
0
0
LINE
8
1
62
1
10
107.138
20
309.2
30
0
11
107.139
21
309.204
31
0
0
LINE
8
1
62
1
10
107.139
20
309.204
30
0
11
107.143
21
309.205
31
0
0
LINE
8
1
62
1
10
107.143
20
309.205
30
0
11
130.952
21
309.205
31
0
0
LINE
8
1
62
1
10
130.952
20
309.205
30
0
11
130.956
21
309.204
31
0
0
LINE
8
1
62
1
10
130.956
20
309.204
30
0
11
130.957
21
309.2
31
0
0
LINE
8
1
62
1
10
130.957
20
309.2
30
0
11
130.957
21
303.405
31
0
0
LINE
8
1
62
1
10
130.957
20
303.405
30
0
11
154.757
21
303.405
31
0
0
LINE
8
1
62
1
10
154.757
20
303.405
30
0
11
154.757
21
309.2
31
0
0
LINE
8
1
62
1
10
154.757
20
309.2
30
0
11
154.758
21
309.204
31
0
0
LINE
8
1
62
1
10
154.758
20
309.204
30
0
11
154.762
21
309.205
31
0
0
LINE
8
1
62
1
10
154.762
20
309.205
30
0
11
178.571
21
309.205
31
0
0
LINE
8
1
62
1
10
178.571
20
309.205
30
0
11
178.575
21
309.204
31
0
0
LINE
8
1
62
1
10
178.575
20
309.204
30
0
11
178.576
21
309.2
31
0
0
LINE
8
1
62
1
10
178.576
20
309.2
30
0
11
178.576
21
303.405
31
0
0
LINE
8
1
62
1
10
178.576
20
303.405
30
0
11
202.376
21
303.405
31
0
0
LINE
8
1
62
1
10
202.376
20
303.405
30
0
11
202.376
21
309.2
31
0
0
LINE
8
1
62
1
10
202.376
20
309.2
30
0
11
202.377
21
309.204
31
0
0
LINE
8
1
62
1
10
202.377
20
309.204
30
0
11
202.381
21
309.205
31
0
0
LINE
8
1
62
1
10
202.381
20
309.205
30
0
11
226.19
21
309.205
31
0
0
LINE
8
1
62
1
10
226.19
20
309.205
30
0
11
226.194
21
309.204
31
0
0
LINE
8
1
62
1
10
226.194
20
309.204
30
0
11
226.195
21
309.2
31
0
0
LINE
8
1
62
1
10
226.195
20
309.2
30
0
11
226.195
21
303.405
31
0
0
LINE
8
1
62
1
10
226.195
20
303.405
30
0
11
250
21
303.405
31
0
0
LINE
8
1
62
1
10
250
20
303.405
30
0
11
250.004
21
303.404
31
0
0
LINE
8
1
62
1
10
250.004
20
303.404
30
0
11
250.005
21
303.4
31
0
0
LINE
8
1
62
1
10
250.005
20
303.4
30
0
11
250.005
21
280.328
31
0
0
LINE
8
1
62
1
10
250.005
20
280.328
30
0
11
255.8
21
280.328
31
0
0
LINE
8
1
62
1
10
255.8
20
280.328
30
0
11
255.804
21
280.327
31
0
0
LINE
8
1
62
1
10
255.804
20
280.327
30
0
11
255.805
21
280.323
31
0
0
LINE
8
1
62
1
10
255.805
20
280.323
30
0
11
255.805
21
257.246
31
0
0
LINE
8
1
62
1
10
255.805
20
257.246
30
0
11
255.804
21
257.242
31
0
0
LINE
8
1
62
1
10
255.804
20
257.242
30
0
11
255.8
21
257.241
31
0
0
LINE
8
1
62
1
10
255.8
20
257.241
30
0
11
250.005
21
257.241
31
0
0
LINE
8
1
62
1
10
250.005
20
257.241
30
0
11
250.005
21
234.174
31
0
0
LINE
8
1
62
1
10
250.005
20
234.174
30
0
11
255.8
21
234.174
31
0
0
LINE
8
1
62
1
10
255.8
20
234.174
30
0
11
255.804
21
234.173
31
0
0
LINE
8
1
62
1
10
255.804
20
234.173
30
0
11
255.805
21
234.169
31
0
0
LINE
8
1
62
1
10
255.805
20
234.169
30
0
11
255.805
21
211.092
31
0
0
LINE
8
1
62
1
10
255.805
20
211.092
30
0
11
255.804
21
211.088
31
0
0
LINE
8
1
62
1
10
255.804
20
211.088
30
0
11
255.8
21
211.087
31
0
0
LINE
8
1
62
1
10
255.8
20
211.087
30
0
11
250.005
21
211.087
31
0
0
LINE
8
1
62
1
10
250.005
20
211.087
30
0
11
250.005
21
188.02
31
0
0
LINE
8
1
62
1
10
250.005
20
188.02
30
0
11
255.8
21
188.02
31
0
0
LINE
8
1
62
1
10
255.8
20
188.02
30
0
11
255.804
21
188.019
31
0
0
LINE
8
1
62
1
10
255.804
20
188.019
30
0
11
255.805
21
188.015
31
0
0
LINE
8
1
62
1
10
255.805
20
188.015
30
0
11
255.805
21
164.938
31
0
0
LINE
8
1
62
1
10
255.805
20
164.938
30
0
11
255.804
21
164.934
31
0
0
LINE
8
1
62
1
10
255.804
20
164.934
30
0
11
255.8
21
164.933
31
0
0
LINE
8
1
62
1
10
255.8
20
164.933
30
0
11
250.005
21
164.933
31
0
0
LINE
8
1
62
1
10
250.005
20
164.933
30
0
11
250.005
21
141.867
31
0
0
LINE
8
1
62
1
10
250.005
20
141.867
30
0
11
255.8
21
141.867
31
0
0
LINE
8
1
62
1
10
255.8
20
141.867
30
0
11
255.804
21
141.866
31
0
0
LINE
8
1
62
1
10
255.804
20
141.866
30
0
11
255.805
21
141.862
31
0
0
LINE
8
1
62
1
10
255.805
20
141.862
30
0
11
255.805
21
118.785
31
0
0
LINE
8
1
62
1
10
255.805
20
118.785
30
0
11
255.804
21
118.781
31
0
0
LINE
8
1
62
1
10
255.804
20
118.781
30
0
11
255.8
21
118.78
31
0
0
LINE
8
1
62
1
10
255.8
20
118.78
30
0
11
250.005
21
118.78
31
0
0
LINE
8
1
62
1
10
250.005
20
118.78
30
0
11
250.005
21
95.713
31
0
0
LINE
8
1
62
1
10
250.005
20
95.713
30
0
11
255.8
21
95.713
31
0
0
LINE
8
1
62
1
10
255.8
20
95.713
30
0
11
255.804
21
95.711
31
0
0
LINE
8
1
62
1
10
255.804
20
95.711
30
0
11
255.805
21
95.708
31
0
0
LINE
8
1
62
1
10
255.805
20
95.708
30
0
11
255.805
21
72.631
31
0
0
LINE
8
1
62
1
10
255.805
20
72.631
30
0
11
255.804
21
72.627
31
0
0
LINE
8
1
62
1
10
255.804
20
72.627
30
0
11
255.8
21
72.626
31
0
0
LINE
8
1
62
1
10
255.8
20
72.626
30
0
11
250.005
21
72.626
31
0
0
LINE
8
1
62
1
10
250.005
20
72.626
30
0
11
250.005
21
49.559
31
0
0
LINE
8
1
62
1
10
250.005
20
49.559
30
0
11
255.8
21
49.559
31
0
0
LINE
8
1
62
1
10
255.8
20
49.559
30
0
11
255.804
21
49.557
31
0
0
LINE
8
1
62
1
10
255.804
20
49.557
30
0
11
255.805
21
49.554
31
0
0
LINE
8
1
62
1
10
255.805
20
49.554
30
0
11
255.805
21
26.477
31
0
0
LINE
8
1
62
1
10
255.805
20
26.477
30
0
11
255.804
21
26.473
31
0
0
LINE
8
1
62
1
10
255.804
20
26.473
30
0
11
255.8
21
26.472
31
0
0
LINE
8
1
62
1
10
255.8
20
26.472
30
0
11
250.005
21
26.472
31
0
0
LINE
8
1
62
1
10
250.005
20
26.472
30
0
11
250.005
21
3.4
31
0
0
LINE
8
1
62
1
10
250.005
20
3.4
30
0
11
250.004
21
3.396
31
0
0
LINE
8
1
62
1
10
250.004
20
3.396
30
0
11
250
21
3.395
31
0
0
LINE
8
1
62
1
10
250
20
3.395
30
0
11
226.195
21
3.395
31
0
0
LINE
8
1
62
1
10
226.195
20
3.395
30
0
11
226.195
21
-2.4
31
0
0
LINE
8
1
62
1
10
226.195
20
-2.4
30
0
11
226.194
21
-2.404
31
0
0
LINE
8
1
62
1
10
226.194
20
-2.404
30
0
11
226.19
21
-2.405
31
0
0
LINE
8
1
62
1
10
226.19
20
-2.405
30
0
11
202.381
21
-2.405
31
0
0
LINE
8
1
62
1
10
202.381
20
-2.405
30
0
11
202.377
21
-2.404
31
0
0
LINE
8
1
62
1
10
202.377
20
-2.404
30
0
11
202.376
21
-2.4
31
0
0
LINE
8
1
62
1
10
202.376
20
-2.4
30
0
11
202.376
21
3.395
31
0
0
LINE
8
1
62
1
10
202.376
20
3.395
30
0
11
178.636
21
3.395
31
0
0
LINE
8
1
62
2
10
178.636
20
3.395
30
0
11
178.611
21
3.352
31
0
0
LINE
8
1
62
3
10
178.611
20
3.352
30
0
11
178.611
21
3.352
31
15
0
ENDSEC
0
EOF
