999
Generated by Autodesk CAM - http://cam.autodesk.com
0
SECTION
2
HEADER
9
$ACADVER
1
AC1006
9
$ANGBASE
50
0
9
$ANGDIR
70
0
0
ENDSEC
0
SECTION
2
BLOCKS
0
ENDSEC
9
$EXTMIN
10
-200.048
20
-311.605
30
0
9
$EXTMAX
10
5.805
20
0.005
30
527.6
0
SECTION
2
ENTITIES
0
LINE
8
1
62
3
10
-200.048
20
-281.625
30
527.6
11
-200.048
21
-281.625
31
527.6
0
LINE
8
1
62
3
10
-200.048
20
-281.625
30
527.6
11
-200.048
21
-281.625
31
512.6
0
LINE
8
1
62
2
10
-200.048
20
-281.625
30
512.6
11
-200.005
21
-281.6
31
512.6
0
LINE
8
1
62
1
10
-200.005
20
-281.6
30
512.6
11
-200.005
21
-30
31
512.6
0
ARC
8
1
62
1
10
-170
20
-30
30
512.6
40
30.005
50
90
51
180
0
LINE
8
1
62
1
10
-170
20
0.005
30
512.6
11
-128.571
21
0.005
31
512.6
0
LINE
8
1
62
1
10
-128.571
20
0.005
30
512.6
11
-128.567
21
0.004
31
512.6
0
LINE
8
1
62
1
10
-128.567
20
0.004
30
512.6
11
-128.566
21
0
31
512.6
0
LINE
8
1
62
1
10
-128.566
20
0
30
512.6
11
-128.566
21
-5.795
31
512.6
0
LINE
8
1
62
1
10
-128.566
20
-5.795
30
512.6
11
-107.148
21
-5.795
31
512.6
0
LINE
8
1
62
1
10
-107.148
20
-5.795
30
512.6
11
-107.148
21
0
31
512.6
0
LINE
8
1
62
1
10
-107.148
20
0
30
512.6
11
-107.147
21
0.004
31
512.6
0
LINE
8
1
62
1
10
-107.147
20
0.004
30
512.6
11
-107.143
21
0.005
31
512.6
0
LINE
8
1
62
1
10
-107.143
20
0.005
30
512.6
11
-85.714
21
0.005
31
512.6
0
LINE
8
1
62
1
10
-85.714
20
0.005
30
512.6
11
-85.711
21
0.004
31
512.6
0
LINE
8
1
62
1
10
-85.711
20
0.004
30
512.6
11
-85.709
21
0
31
512.6
0
LINE
8
1
62
1
10
-85.709
20
0
30
512.6
11
-85.709
21
-5.795
31
512.6
0
LINE
8
1
62
1
10
-85.709
20
-5.795
30
512.6
11
-64.291
21
-5.795
31
512.6
0
LINE
8
1
62
1
10
-64.291
20
-5.795
30
512.6
11
-64.291
21
0
31
512.6
0
LINE
8
1
62
1
10
-64.291
20
0
30
512.6
11
-64.289
21
0.004
31
512.6
0
LINE
8
1
62
1
10
-64.289
20
0.004
30
512.6
11
-64.286
21
0.005
31
512.6
0
LINE
8
1
62
1
10
-64.286
20
0.005
30
512.6
11
-42.857
21
0.005
31
512.6
0
LINE
8
1
62
1
10
-42.857
20
0.005
30
512.6
11
-42.854
21
0.004
31
512.6
0
LINE
8
1
62
1
10
-42.854
20
0.004
30
512.6
11
-42.852
21
0
31
512.6
0
LINE
8
1
62
1
10
-42.852
20
0
30
512.6
11
-42.852
21
-5.795
31
512.6
0
LINE
8
1
62
1
10
-42.852
20
-5.795
30
512.6
11
-21.434
21
-5.795
31
512.6
0
LINE
8
1
62
1
10
-21.434
20
-5.795
30
512.6
11
-21.434
21
0
31
512.6
0
LINE
8
1
62
1
10
-21.434
20
0
30
512.6
11
-21.432
21
0.004
31
512.6
0
LINE
8
1
62
1
10
-21.432
20
0.004
30
512.6
11
-21.429
21
0.005
31
512.6
0
LINE
8
1
62
1
10
-21.429
20
0.005
30
512.6
11
5.8
21
0.005
31
512.6
0
LINE
8
1
62
1
10
5.8
20
0.005
30
512.6
11
5.804
21
0.004
31
512.6
0
LINE
8
1
62
1
10
5.804
20
0.004
30
512.6
11
5.805
21
0
31
512.6
0
LINE
8
1
62
1
10
5.805
20
0
30
512.6
11
5.805
21
-28.877
31
512.6
0
LINE
8
1
62
1
10
5.805
20
-28.877
30
512.6
11
5.804
21
-28.88
31
512.6
0
LINE
8
1
62
1
10
5.804
20
-28.88
30
512.6
11
5.8
21
-28.882
31
512.6
0
LINE
8
1
62
1
10
5.8
20
-28.882
30
512.6
11
0.005
21
-28.882
31
512.6
0
LINE
8
1
62
1
10
0.005
20
-28.882
30
512.6
11
0.005
21
-51.949
31
512.6
0
LINE
8
1
62
1
10
0.005
20
-51.949
30
512.6
11
5.8
21
-51.949
31
512.6
0
LINE
8
1
62
1
10
5.8
20
-51.949
30
512.6
11
5.804
21
-51.95
31
512.6
0
LINE
8
1
62
1
10
5.804
20
-51.95
30
512.6
11
5.805
21
-51.954
31
512.6
0
LINE
8
1
62
1
10
5.805
20
-51.954
30
512.6
11
5.805
21
-75.031
31
512.6
0
LINE
8
1
62
1
10
5.805
20
-75.031
30
512.6
11
5.804
21
-75.034
31
512.6
0
LINE
8
1
62
1
10
5.804
20
-75.034
30
512.6
11
5.8
21
-75.036
31
512.6
0
LINE
8
1
62
1
10
5.8
20
-75.036
30
512.6
11
0.005
21
-75.036
31
512.6
0
LINE
8
1
62
1
10
0.005
20
-75.036
30
512.6
11
0.005
21
-98.103
31
512.6
0
LINE
8
1
62
1
10
0.005
20
-98.103
30
512.6
11
5.8
21
-98.103
31
512.6
0
LINE
8
1
62
1
10
5.8
20
-98.103
30
512.6
11
5.804
21
-98.104
31
512.6
0
LINE
8
1
62
1
10
5.804
20
-98.104
30
512.6
11
5.805
21
-98.108
31
512.6
0
LINE
8
1
62
1
10
5.805
20
-98.108
30
512.6
11
5.805
21
-121.185
31
512.6
0
LINE
8
1
62
1
10
5.805
20
-121.185
30
512.6
11
5.804
21
-121.189
31
512.6
0
LINE
8
1
62
1
10
5.804
20
-121.189
30
512.6
11
5.8
21
-121.19
31
512.6
0
LINE
8
1
62
1
10
5.8
20
-121.19
30
512.6
11
0.005
21
-121.19
31
512.6
0
LINE
8
1
62
1
10
0.005
20
-121.19
30
512.6
11
0.005
21
-144.257
31
512.6
0
LINE
8
1
62
1
10
0.005
20
-144.257
30
512.6
11
5.8
21
-144.257
31
512.6
0
LINE
8
1
62
1
10
5.8
20
-144.257
30
512.6
11
5.804
21
-144.258
31
512.6
0
LINE
8
1
62
1
10
5.804
20
-144.258
30
512.6
11
5.805
21
-144.262
31
512.6
0
LINE
8
1
62
1
10
5.805
20
-144.262
30
512.6
11
5.805
21
-167.338
31
512.6
0
LINE
8
1
62
1
10
5.805
20
-167.338
30
512.6
11
5.804
21
-167.342
31
512.6
0
LINE
8
1
62
1
10
5.804
20
-167.342
30
512.6
11
5.8
21
-167.343
31
512.6
0
LINE
8
1
62
1
10
5.8
20
-167.343
30
512.6
11
0.005
21
-167.343
31
512.6
0
LINE
8
1
62
1
10
0.005
20
-167.343
30
512.6
11
0.005
21
-190.41
31
512.6
0
LINE
8
1
62
1
10
0.005
20
-190.41
30
512.6
11
5.8
21
-190.41
31
512.6
0
LINE
8
1
62
1
10
5.8
20
-190.41
30
512.6
11
5.804
21
-190.411
31
512.6
0
LINE
8
1
62
1
10
5.804
20
-190.411
30
512.6
11
5.805
21
-190.415
31
512.6
0
LINE
8
1
62
1
10
5.805
20
-190.415
30
512.6
11
5.805
21
-213.492
31
512.6
0
LINE
8
1
62
1
10
5.805
20
-213.492
30
512.6
11
5.804
21
-213.496
31
512.6
0
LINE
8
1
62
1
10
5.804
20
-213.496
30
512.6
11
5.8
21
-213.497
31
512.6
0
LINE
8
1
62
1
10
5.8
20
-213.497
30
512.6
11
0.005
21
-213.497
31
512.6
0
LINE
8
1
62
1
10
0.005
20
-213.497
30
512.6
11
0.005
21
-236.564
31
512.6
0
LINE
8
1
62
1
10
0.005
20
-236.564
30
512.6
11
5.8
21
-236.564
31
512.6
0
LINE
8
1
62
1
10
5.8
20
-236.564
30
512.6
11
5.804
21
-236.565
31
512.6
0
LINE
8
1
62
1
10
5.804
20
-236.565
30
512.6
11
5.805
21
-236.569
31
512.6
0
LINE
8
1
62
1
10
5.805
20
-236.569
30
512.6
11
5.805
21
-259.646
31
512.6
0
LINE
8
1
62
1
10
5.805
20
-259.646
30
512.6
11
5.804
21
-259.65
31
512.6
0
LINE
8
1
62
1
10
5.804
20
-259.65
30
512.6
11
5.8
21
-259.651
31
512.6
0
LINE
8
1
62
1
10
5.8
20
-259.651
30
512.6
11
0.005
21
-259.651
31
512.6
0
LINE
8
1
62
1
10
0.005
20
-259.651
30
512.6
11
0.005
21
-282.718
31
512.6
0
LINE
8
1
62
1
10
0.005
20
-282.718
30
512.6
11
5.8
21
-282.718
31
512.6
0
LINE
8
1
62
1
10
5.8
20
-282.718
30
512.6
11
5.804
21
-282.719
31
512.6
0
LINE
8
1
62
1
10
5.804
20
-282.719
30
512.6
11
5.805
21
-282.723
31
512.6
0
LINE
8
1
62
1
10
5.805
20
-282.723
30
512.6
11
5.805
21
-311.6
31
512.6
0
LINE
8
1
62
1
10
5.805
20
-311.6
30
512.6
11
5.804
21
-311.604
31
512.6
0
LINE
8
1
62
1
10
5.804
20
-311.604
30
512.6
11
5.8
21
-311.605
31
512.6
0
LINE
8
1
62
1
10
5.8
20
-311.605
30
512.6
11
-21.429
21
-311.605
31
512.6
0
LINE
8
1
62
1
10
-21.429
20
-311.605
30
512.6
11
-21.432
21
-311.604
31
512.6
0
LINE
8
1
62
1
10
-21.432
20
-311.604
30
512.6
11
-21.434
21
-311.6
31
512.6
0
LINE
8
1
62
1
10
-21.434
20
-311.6
30
512.6
11
-21.434
21
-305.805
31
512.6
0
LINE
8
1
62
1
10
-21.434
20
-305.805
30
512.6
11
-42.852
21
-305.805
31
512.6
0
LINE
8
1
62
1
10
-42.852
20
-305.805
30
512.6
11
-42.852
21
-311.6
31
512.6
0
LINE
8
1
62
1
10
-42.852
20
-311.6
30
512.6
11
-42.854
21
-311.604
31
512.6
0
LINE
8
1
62
1
10
-42.854
20
-311.604
30
512.6
11
-42.857
21
-311.605
31
512.6
0
LINE
8
1
62
1
10
-42.857
20
-311.605
30
512.6
11
-64.286
21
-311.605
31
512.6
0
LINE
8
1
62
1
10
-64.286
20
-311.605
30
512.6
11
-64.289
21
-311.604
31
512.6
0
LINE
8
1
62
1
10
-64.289
20
-311.604
30
512.6
11
-64.291
21
-311.6
31
512.6
0
LINE
8
1
62
1
10
-64.291
20
-311.6
30
512.6
11
-64.291
21
-305.805
31
512.6
0
LINE
8
1
62
1
10
-64.291
20
-305.805
30
512.6
11
-85.709
21
-305.805
31
512.6
0
LINE
8
1
62
1
10
-85.709
20
-305.805
30
512.6
11
-85.709
21
-311.6
31
512.6
0
LINE
8
1
62
1
10
-85.709
20
-311.6
30
512.6
11
-85.711
21
-311.604
31
512.6
0
LINE
8
1
62
1
10
-85.711
20
-311.604
30
512.6
11
-85.714
21
-311.605
31
512.6
0
LINE
8
1
62
1
10
-85.714
20
-311.605
30
512.6
11
-107.143
21
-311.605
31
512.6
0
LINE
8
1
62
1
10
-107.143
20
-311.605
30
512.6
11
-107.147
21
-311.604
31
512.6
0
LINE
8
1
62
1
10
-107.147
20
-311.604
30
512.6
11
-107.148
21
-311.6
31
512.6
0
LINE
8
1
62
1
10
-107.148
20
-311.6
30
512.6
11
-107.148
21
-305.805
31
512.6
0
LINE
8
1
62
1
10
-107.148
20
-305.805
30
512.6
11
-128.566
21
-305.805
31
512.6
0
LINE
8
1
62
1
10
-128.566
20
-305.805
30
512.6
11
-128.566
21
-311.6
31
512.6
0
LINE
8
1
62
1
10
-128.566
20
-311.6
30
512.6
11
-128.567
21
-311.604
31
512.6
0
LINE
8
1
62
1
10
-128.567
20
-311.604
30
512.6
11
-128.571
21
-311.605
31
512.6
0
LINE
8
1
62
1
10
-128.571
20
-311.605
30
512.6
11
-170
21
-311.605
31
512.6
0
ARC
8
1
62
1
10
-170
20
-281.6
30
512.6
40
30.005
50
180
51
-90
0
LINE
8
1
62
2
10
-200.005
20
-281.6
30
512.6
11
-200.048
21
-281.575
31
512.6
0
LINE
8
1
62
3
10
-200.048
20
-281.575
30
512.6
11
-200.048
21
-281.575
31
527.6
0
ENDSEC
0
EOF
