999
Generated by Autodesk CAM - http://cam.autodesk.com
0
SECTION
2
HEADER
9
$ACADVER
1
AC1006
9
$ANGBASE
50
0
9
$ANGDIR
70
0
0
ENDSEC
0
SECTION
2
BLOCKS
0
ENDSEC
9
$EXTMIN
10
-280.005
20
-26.605
30
0
9
$EXTMAX
10
0
20
333.405
30
15
0
SECTION
2
ENTITIES
0
LINE
8
1
62
3
10
-9.957
20
309.234
30
15
11
-9.957
21
309.234
31
15
0
LINE
8
1
62
3
10
-9.957
20
309.234
30
15
11
-9.957
21
309.234
31
0
0
LINE
8
1
62
2
10
-9.957
20
309.234
30
0
11
-9.995
21
309.201
31
0
0
LINE
8
1
62
1
10
-9.995
20
309.201
30
0
11
-9.996
21
309.197
31
0
0
LINE
8
1
62
1
10
-9.996
20
309.197
30
0
11
-10
21
309.195
31
0
0
LINE
8
1
62
1
10
-10
20
309.195
30
0
11
-36.662
21
309.195
31
0
0
LINE
8
1
62
1
10
-36.662
20
309.195
30
0
11
-36.662
21
303.4
31
0
0
LINE
8
1
62
1
10
-36.662
20
303.4
30
0
11
-36.663
21
303.396
31
0
0
LINE
8
1
62
1
10
-36.663
20
303.396
30
0
11
-36.667
21
303.395
31
0
0
LINE
8
1
62
1
10
-36.667
20
303.395
30
0
11
-63.333
21
303.395
31
0
0
LINE
8
1
62
1
10
-63.333
20
303.395
30
0
11
-63.337
21
303.396
31
0
0
LINE
8
1
62
1
10
-63.337
20
303.396
30
0
11
-63.338
21
303.4
31
0
0
LINE
8
1
62
1
10
-63.338
20
303.4
30
0
11
-63.338
21
309.195
31
0
0
LINE
8
1
62
1
10
-63.338
20
309.195
30
0
11
-89.995
21
309.195
31
0
0
LINE
8
1
62
1
10
-89.995
20
309.195
30
0
11
-89.995
21
303.4
31
0
0
LINE
8
1
62
1
10
-89.995
20
303.4
30
0
11
-89.996
21
303.396
31
0
0
LINE
8
1
62
1
10
-89.996
20
303.396
30
0
11
-90
21
303.395
31
0
0
LINE
8
1
62
1
10
-90
20
303.395
30
0
11
-116.667
21
303.395
31
0
0
LINE
8
1
62
1
10
-116.667
20
303.395
30
0
11
-116.671
21
303.396
31
0
0
LINE
8
1
62
1
10
-116.671
20
303.396
30
0
11
-116.672
21
303.4
31
0
0
LINE
8
1
62
1
10
-116.672
20
303.4
30
0
11
-116.672
21
309.195
31
0
0
LINE
8
1
62
1
10
-116.672
20
309.195
30
0
11
-143.328
21
309.195
31
0
0
LINE
8
1
62
1
10
-143.328
20
309.195
30
0
11
-143.328
21
303.4
31
0
0
LINE
8
1
62
1
10
-143.328
20
303.4
30
0
11
-143.329
21
303.396
31
0
0
LINE
8
1
62
1
10
-143.329
20
303.396
30
0
11
-143.333
21
303.395
31
0
0
LINE
8
1
62
1
10
-143.333
20
303.395
30
0
11
-170
21
303.395
31
0
0
LINE
8
1
62
1
10
-170
20
303.395
30
0
11
-170.004
21
303.396
31
0
0
LINE
8
1
62
1
10
-170.004
20
303.396
30
0
11
-170.005
21
303.4
31
0
0
LINE
8
1
62
1
10
-170.005
20
303.4
30
0
11
-170.005
21
309.195
31
0
0
LINE
8
1
62
1
10
-170.005
20
309.195
30
0
11
-196.662
21
309.195
31
0
0
LINE
8
1
62
1
10
-196.662
20
309.195
30
0
11
-196.662
21
303.4
31
0
0
LINE
8
1
62
1
10
-196.662
20
303.4
30
0
11
-196.663
21
303.396
31
0
0
LINE
8
1
62
1
10
-196.663
20
303.396
30
0
11
-196.667
21
303.395
31
0
0
LINE
8
1
62
1
10
-196.667
20
303.395
30
0
11
-223.333
21
303.395
31
0
0
LINE
8
1
62
1
10
-223.333
20
303.395
30
0
11
-223.337
21
303.396
31
0
0
LINE
8
1
62
1
10
-223.337
20
303.396
30
0
11
-223.338
21
303.4
31
0
0
LINE
8
1
62
1
10
-223.338
20
303.4
30
0
11
-223.338
21
309.195
31
0
0
LINE
8
1
62
1
10
-223.338
20
309.195
30
0
11
-255.795
21
309.195
31
0
0
LINE
8
1
62
1
10
-255.795
20
309.195
30
0
11
-255.795
21
280.328
31
0
0
LINE
8
1
62
1
10
-255.795
20
280.328
30
0
11
-250
21
280.328
31
0
0
LINE
8
1
62
1
10
-250
20
280.328
30
0
11
-249.996
21
280.327
31
0
0
LINE
8
1
62
1
10
-249.996
20
280.327
30
0
11
-249.995
21
280.323
31
0
0
LINE
8
1
62
1
10
-249.995
20
280.323
30
0
11
-249.995
21
257.246
31
0
0
LINE
8
1
62
1
10
-249.995
20
257.246
30
0
11
-249.996
21
257.242
31
0
0
LINE
8
1
62
1
10
-249.996
20
257.242
30
0
11
-250
21
257.241
31
0
0
LINE
8
1
62
1
10
-250
20
257.241
30
0
11
-255.795
21
257.241
31
0
0
LINE
8
1
62
1
10
-255.795
20
257.241
30
0
11
-255.795
21
234.174
31
0
0
LINE
8
1
62
1
10
-255.795
20
234.174
30
0
11
-250
21
234.174
31
0
0
LINE
8
1
62
1
10
-250
20
234.174
30
0
11
-249.996
21
234.173
31
0
0
LINE
8
1
62
1
10
-249.996
20
234.173
30
0
11
-249.995
21
234.169
31
0
0
LINE
8
1
62
1
10
-249.995
20
234.169
30
0
11
-249.995
21
211.092
31
0
0
LINE
8
1
62
1
10
-249.995
20
211.092
30
0
11
-249.996
21
211.088
31
0
0
LINE
8
1
62
1
10
-249.996
20
211.088
30
0
11
-250
21
211.087
31
0
0
LINE
8
1
62
1
10
-250
20
211.087
30
0
11
-255.795
21
211.087
31
0
0
LINE
8
1
62
1
10
-255.795
20
211.087
30
0
11
-255.795
21
188.02
31
0
0
LINE
8
1
62
1
10
-255.795
20
188.02
30
0
11
-250
21
188.02
31
0
0
LINE
8
1
62
1
10
-250
20
188.02
30
0
11
-249.996
21
188.019
31
0
0
LINE
8
1
62
1
10
-249.996
20
188.019
30
0
11
-249.995
21
188.015
31
0
0
LINE
8
1
62
1
10
-249.995
20
188.015
30
0
11
-249.995
21
164.938
31
0
0
LINE
8
1
62
1
10
-249.995
20
164.938
30
0
11
-249.996
21
164.934
31
0
0
LINE
8
1
62
1
10
-249.996
20
164.934
30
0
11
-250
21
164.933
31
0
0
LINE
8
1
62
1
10
-250
20
164.933
30
0
11
-255.795
21
164.933
31
0
0
LINE
8
1
62
1
10
-255.795
20
164.933
30
0
11
-255.795
21
141.867
31
0
0
LINE
8
1
62
1
10
-255.795
20
141.867
30
0
11
-250
21
141.867
31
0
0
LINE
8
1
62
1
10
-250
20
141.867
30
0
11
-249.996
21
141.866
31
0
0
LINE
8
1
62
1
10
-249.996
20
141.866
30
0
11
-249.995
21
141.862
31
0
0
LINE
8
1
62
1
10
-249.995
20
141.862
30
0
11
-249.995
21
118.785
31
0
0
LINE
8
1
62
1
10
-249.995
20
118.785
30
0
11
-249.996
21
118.781
31
0
0
LINE
8
1
62
1
10
-249.996
20
118.781
30
0
11
-250
21
118.78
31
0
0
LINE
8
1
62
1
10
-250
20
118.78
30
0
11
-255.795
21
118.78
31
0
0
LINE
8
1
62
1
10
-255.795
20
118.78
30
0
11
-255.795
21
95.713
31
0
0
LINE
8
1
62
1
10
-255.795
20
95.713
30
0
11
-250
21
95.713
31
0
0
LINE
8
1
62
1
10
-250
20
95.713
30
0
11
-249.996
21
95.711
31
0
0
LINE
8
1
62
1
10
-249.996
20
95.711
30
0
11
-249.995
21
95.708
31
0
0
LINE
8
1
62
1
10
-249.995
20
95.708
30
0
11
-249.995
21
72.631
31
0
0
LINE
8
1
62
1
10
-249.995
20
72.631
30
0
11
-249.996
21
72.627
31
0
0
LINE
8
1
62
1
10
-249.996
20
72.627
30
0
11
-250
21
72.626
31
0
0
LINE
8
1
62
1
10
-250
20
72.626
30
0
11
-255.795
21
72.626
31
0
0
LINE
8
1
62
1
10
-255.795
20
72.626
30
0
11
-255.795
21
49.559
31
0
0
LINE
8
1
62
1
10
-255.795
20
49.559
30
0
11
-250
21
49.559
31
0
0
LINE
8
1
62
1
10
-250
20
49.559
30
0
11
-249.996
21
49.557
31
0
0
LINE
8
1
62
1
10
-249.996
20
49.557
30
0
11
-249.995
21
49.554
31
0
0
LINE
8
1
62
1
10
-249.995
20
49.554
30
0
11
-249.995
21
26.477
31
0
0
LINE
8
1
62
1
10
-249.995
20
26.477
30
0
11
-249.996
21
26.473
31
0
0
LINE
8
1
62
1
10
-249.996
20
26.473
30
0
11
-250
21
26.472
31
0
0
LINE
8
1
62
1
10
-250
20
26.472
30
0
11
-255.795
21
26.472
31
0
0
LINE
8
1
62
1
10
-255.795
20
26.472
30
0
11
-255.795
21
-2.395
31
0
0
LINE
8
1
62
1
10
-255.795
20
-2.395
30
0
11
-223.338
21
-2.395
31
0
0
LINE
8
1
62
1
10
-223.338
20
-2.395
30
0
11
-223.338
21
3.4
31
0
0
LINE
8
1
62
1
10
-223.338
20
3.4
30
0
11
-223.337
21
3.404
31
0
0
LINE
8
1
62
1
10
-223.337
20
3.404
30
0
11
-223.333
21
3.405
31
0
0
LINE
8
1
62
1
10
-223.333
20
3.405
30
0
11
-196.667
21
3.405
31
0
0
LINE
8
1
62
1
10
-196.667
20
3.405
30
0
11
-196.663
21
3.404
31
0
0
LINE
8
1
62
1
10
-196.663
20
3.404
30
0
11
-196.662
21
3.4
31
0
0
LINE
8
1
62
1
10
-196.662
20
3.4
30
0
11
-196.662
21
-2.395
31
0
0
LINE
8
1
62
1
10
-196.662
20
-2.395
30
0
11
-170.005
21
-2.395
31
0
0
LINE
8
1
62
1
10
-170.005
20
-2.395
30
0
11
-170.005
21
3.4
31
0
0
LINE
8
1
62
1
10
-170.005
20
3.4
30
0
11
-170.004
21
3.404
31
0
0
LINE
8
1
62
1
10
-170.004
20
3.404
30
0
11
-170
21
3.405
31
0
0
LINE
8
1
62
1
10
-170
20
3.405
30
0
11
-143.333
21
3.405
31
0
0
LINE
8
1
62
1
10
-143.333
20
3.405
30
0
11
-143.329
21
3.404
31
0
0
LINE
8
1
62
1
10
-143.329
20
3.404
30
0
11
-143.328
21
3.4
31
0
0
LINE
8
1
62
1
10
-143.328
20
3.4
30
0
11
-143.328
21
-2.395
31
0
0
LINE
8
1
62
1
10
-143.328
20
-2.395
30
0
11
-116.672
21
-2.395
31
0
0
LINE
8
1
62
1
10
-116.672
20
-2.395
30
0
11
-116.672
21
3.4
31
0
0
LINE
8
1
62
1
10
-116.672
20
3.4
30
0
11
-116.671
21
3.404
31
0
0
LINE
8
1
62
1
10
-116.671
20
3.404
30
0
11
-116.667
21
3.405
31
0
0
LINE
8
1
62
1
10
-116.667
20
3.405
30
0
11
-90
21
3.405
31
0
0
LINE
8
1
62
1
10
-90
20
3.405
30
0
11
-89.996
21
3.404
31
0
0
LINE
8
1
62
1
10
-89.996
20
3.404
30
0
11
-89.995
21
3.4
31
0
0
LINE
8
1
62
1
10
-89.995
20
3.4
30
0
11
-89.995
21
-2.395
31
0
0
LINE
8
1
62
1
10
-89.995
20
-2.395
30
0
11
-63.338
21
-2.395
31
0
0
LINE
8
1
62
1
10
-63.338
20
-2.395
30
0
11
-63.338
21
3.4
31
0
0
LINE
8
1
62
1
10
-63.338
20
3.4
30
0
11
-63.337
21
3.404
31
0
0
LINE
8
1
62
1
10
-63.337
20
3.404
30
0
11
-63.333
21
3.405
31
0
0
LINE
8
1
62
1
10
-63.333
20
3.405
30
0
11
-36.667
21
3.405
31
0
0
LINE
8
1
62
1
10
-36.667
20
3.405
30
0
11
-36.663
21
3.404
31
0
0
LINE
8
1
62
1
10
-36.663
20
3.404
30
0
11
-36.662
21
3.4
31
0
0
LINE
8
1
62
1
10
-36.662
20
3.4
30
0
11
-36.662
21
-2.395
31
0
0
LINE
8
1
62
1
10
-36.662
20
-2.395
30
0
11
-10
21
-2.395
31
0
0
LINE
8
1
62
1
10
-10
20
-2.395
30
0
11
-9.996
21
-2.397
31
0
0
LINE
8
1
62
1
10
-9.996
20
-2.397
30
0
11
-9.995
21
-2.401
31
0
0
ARC
8
1
62
1
10
-39.434
20
3.4
30
0
40
30.005
50
-90
51
-11.147382
0
LINE
8
1
62
1
10
-39.434
20
-26.605
30
0
11
-250
21
-26.605
31
0
0
ARC
8
1
62
1
10
-250
20
3.4
30
0
40
30.005
50
180
51
-90
0
LINE
8
1
62
1
10
-280.005
20
3.4
30
0
11
-280.005
21
303.4
31
0
0
ARC
8
1
62
1
10
-250
20
303.4
30
0
40
30.005
50
90
51
180
0
LINE
8
1
62
1
10
-250
20
333.405
30
0
11
-39.434
21
333.405
31
0
0
ARC
8
1
62
1
10
-39.434
20
303.4
30
0
40
30.005
50
11.147372
51
90
0
LINE
8
1
62
2
10
-9.995
20
309.201
30
0
11
-9.948
21
309.185
31
0
0
LINE
8
1
62
3
10
-9.948
20
309.185
30
0
11
-9.948
21
309.185
31
15
0
ENDSEC
0
EOF
