999
Generated by Autodesk CAM - http://cam.autodesk.com
0
SECTION
2
HEADER
9
$ACADVER
1
AC1006
9
$ANGBASE
50
0
9
$ANGDIR
70
0
0
ENDSEC
0
SECTION
2
BLOCKS
0
ENDSEC
9
$EXTMIN
10
-255.825
20
-152.905
30
0
9
$EXTMAX
10
255.805
20
152.905
30
15
0
SECTION
2
ENTITIES
0
LINE
8
1
62
3
10
-255.825
20
-100.898
30
15
11
-255.825
21
-100.898
31
15
0
LINE
8
1
62
3
10
-255.825
20
-100.898
30
15
11
-255.825
21
-100.898
31
0
0
LINE
8
1
62
2
10
-255.825
20
-100.898
30
0
11
-255.8
21
-100.941
31
0
0
LINE
8
1
62
1
10
-255.8
20
-100.941
30
0
11
-250.005
21
-100.941
31
0
0
LINE
8
1
62
1
10
-250.005
20
-100.941
30
0
11
-250.005
21
-77.874
31
0
0
LINE
8
1
62
1
10
-250.005
20
-77.874
30
0
11
-255.8
21
-77.874
31
0
0
LINE
8
1
62
1
10
-255.8
20
-77.874
30
0
11
-255.804
21
-77.873
31
0
0
LINE
8
1
62
1
10
-255.804
20
-77.873
30
0
11
-255.805
21
-77.869
31
0
0
LINE
8
1
62
1
10
-255.805
20
-77.869
30
0
11
-255.805
21
-54.792
31
0
0
LINE
8
1
62
1
10
-255.805
20
-54.792
30
0
11
-255.804
21
-54.789
31
0
0
LINE
8
1
62
1
10
-255.804
20
-54.789
30
0
11
-255.8
21
-54.787
31
0
0
LINE
8
1
62
1
10
-255.8
20
-54.787
30
0
11
-250.005
21
-54.787
31
0
0
LINE
8
1
62
1
10
-250.005
20
-54.787
30
0
11
-250.005
21
-31.72
31
0
0
LINE
8
1
62
1
10
-250.005
20
-31.72
30
0
11
-255.8
21
-31.72
31
0
0
LINE
8
1
62
1
10
-255.8
20
-31.72
30
0
11
-255.804
21
-31.719
31
0
0
LINE
8
1
62
1
10
-255.804
20
-31.719
30
0
11
-255.805
21
-31.715
31
0
0
LINE
8
1
62
1
10
-255.805
20
-31.715
30
0
11
-255.805
21
-8.638
31
0
0
LINE
8
1
62
1
10
-255.805
20
-8.638
30
0
11
-255.804
21
-8.635
31
0
0
LINE
8
1
62
1
10
-255.804
20
-8.635
30
0
11
-255.8
21
-8.633
31
0
0
LINE
8
1
62
1
10
-255.8
20
-8.633
30
0
11
-250.005
21
-8.633
31
0
0
LINE
8
1
62
1
10
-250.005
20
-8.633
30
0
11
-250.005
21
14.434
31
0
0
LINE
8
1
62
1
10
-250.005
20
14.434
30
0
11
-255.8
21
14.434
31
0
0
LINE
8
1
62
1
10
-255.8
20
14.434
30
0
11
-255.804
21
14.435
31
0
0
LINE
8
1
62
1
10
-255.804
20
14.435
30
0
11
-255.805
21
14.439
31
0
0
LINE
8
1
62
1
10
-255.805
20
14.439
30
0
11
-255.805
21
37.515
31
0
0
LINE
8
1
62
1
10
-255.805
20
37.515
30
0
11
-255.804
21
37.519
31
0
0
LINE
8
1
62
1
10
-255.804
20
37.519
30
0
11
-255.8
21
37.52
31
0
0
LINE
8
1
62
1
10
-255.8
20
37.52
30
0
11
-250.005
21
37.52
31
0
0
LINE
8
1
62
1
10
-250.005
20
37.52
30
0
11
-250.005
21
60.587
31
0
0
LINE
8
1
62
1
10
-250.005
20
60.587
30
0
11
-255.8
21
60.587
31
0
0
LINE
8
1
62
1
10
-255.8
20
60.587
30
0
11
-255.804
21
60.589
31
0
0
LINE
8
1
62
1
10
-255.804
20
60.589
30
0
11
-255.805
21
60.592
31
0
0
LINE
8
1
62
1
10
-255.805
20
60.592
30
0
11
-255.805
21
83.669
31
0
0
LINE
8
1
62
1
10
-255.805
20
83.669
30
0
11
-255.804
21
83.673
31
0
0
LINE
8
1
62
1
10
-255.804
20
83.673
30
0
11
-255.8
21
83.674
31
0
0
LINE
8
1
62
1
10
-255.8
20
83.674
30
0
11
-250.005
21
83.674
31
0
0
LINE
8
1
62
1
10
-250.005
20
83.674
30
0
11
-250.005
21
106.741
31
0
0
LINE
8
1
62
1
10
-250.005
20
106.741
30
0
11
-255.8
21
106.741
31
0
0
LINE
8
1
62
1
10
-255.8
20
106.741
30
0
11
-255.804
21
106.742
31
0
0
LINE
8
1
62
1
10
-255.804
20
106.742
30
0
11
-255.805
21
106.746
31
0
0
LINE
8
1
62
1
10
-255.805
20
106.746
30
0
11
-255.805
21
129.823
31
0
0
LINE
8
1
62
1
10
-255.805
20
129.823
30
0
11
-255.804
21
129.827
31
0
0
LINE
8
1
62
1
10
-255.804
20
129.827
30
0
11
-255.8
21
129.828
31
0
0
LINE
8
1
62
1
10
-255.8
20
129.828
30
0
11
-250.005
21
129.828
31
0
0
LINE
8
1
62
1
10
-250.005
20
129.828
30
0
11
-250.005
21
152.9
31
0
0
LINE
8
1
62
1
10
-250.005
20
152.9
30
0
11
-250.004
21
152.904
31
0
0
LINE
8
1
62
1
10
-250.004
20
152.904
30
0
11
-250
21
152.905
31
0
0
LINE
8
1
62
1
10
-250
20
152.905
30
0
11
-223.333
21
152.905
31
0
0
LINE
8
1
62
1
10
-223.333
20
152.905
30
0
11
-223.329
21
152.904
31
0
0
LINE
8
1
62
1
10
-223.329
20
152.904
30
0
11
-223.328
21
152.9
31
0
0
LINE
8
1
62
1
10
-223.328
20
152.9
30
0
11
-223.328
21
147.105
31
0
0
LINE
8
1
62
1
10
-223.328
20
147.105
30
0
11
-196.672
21
147.105
31
0
0
LINE
8
1
62
1
10
-196.672
20
147.105
30
0
11
-196.672
21
152.9
31
0
0
LINE
8
1
62
1
10
-196.672
20
152.9
30
0
11
-196.671
21
152.904
31
0
0
LINE
8
1
62
1
10
-196.671
20
152.904
30
0
11
-196.667
21
152.905
31
0
0
LINE
8
1
62
1
10
-196.667
20
152.905
30
0
11
-170
21
152.905
31
0
0
LINE
8
1
62
1
10
-170
20
152.905
30
0
11
-169.996
21
152.904
31
0
0
LINE
8
1
62
1
10
-169.996
20
152.904
30
0
11
-169.995
21
152.9
31
0
0
LINE
8
1
62
1
10
-169.995
20
152.9
30
0
11
-169.995
21
147.105
31
0
0
LINE
8
1
62
1
10
-169.995
20
147.105
30
0
11
-143.338
21
147.105
31
0
0
LINE
8
1
62
1
10
-143.338
20
147.105
30
0
11
-143.338
21
152.9
31
0
0
LINE
8
1
62
1
10
-143.338
20
152.9
30
0
11
-143.337
21
152.904
31
0
0
LINE
8
1
62
1
10
-143.337
20
152.904
30
0
11
-143.333
21
152.905
31
0
0
LINE
8
1
62
1
10
-143.333
20
152.905
30
0
11
-116.667
21
152.905
31
0
0
LINE
8
1
62
1
10
-116.667
20
152.905
30
0
11
-116.663
21
152.904
31
0
0
LINE
8
1
62
1
10
-116.663
20
152.904
30
0
11
-116.662
21
152.9
31
0
0
LINE
8
1
62
1
10
-116.662
20
152.9
30
0
11
-116.662
21
147.105
31
0
0
LINE
8
1
62
1
10
-116.662
20
147.105
30
0
11
-90.005
21
147.105
31
0
0
LINE
8
1
62
1
10
-90.005
20
147.105
30
0
11
-90.005
21
152.9
31
0
0
LINE
8
1
62
1
10
-90.005
20
152.9
30
0
11
-90.004
21
152.904
31
0
0
LINE
8
1
62
1
10
-90.004
20
152.904
30
0
11
-90
21
152.905
31
0
0
LINE
8
1
62
1
10
-90
20
152.905
30
0
11
-63.333
21
152.905
31
0
0
LINE
8
1
62
1
10
-63.333
20
152.905
30
0
11
-63.33
21
152.904
31
0
0
LINE
8
1
62
1
10
-63.33
20
152.904
30
0
11
-63.328
21
152.9
31
0
0
LINE
8
1
62
1
10
-63.328
20
152.9
30
0
11
-63.328
21
147.105
31
0
0
LINE
8
1
62
1
10
-63.328
20
147.105
30
0
11
-36.672
21
147.105
31
0
0
LINE
8
1
62
1
10
-36.672
20
147.105
30
0
11
-36.672
21
152.9
31
0
0
LINE
8
1
62
1
10
-36.672
20
152.9
30
0
11
-36.67
21
152.904
31
0
0
LINE
8
1
62
1
10
-36.67
20
152.904
30
0
11
-36.667
21
152.905
31
0
0
LINE
8
1
62
1
10
-36.667
20
152.905
30
0
11
-10
21
152.905
31
0
0
LINE
8
1
62
1
10
-10
20
152.905
30
0
11
-9.998
21
152.904
31
0
0
LINE
8
1
62
1
10
-9.998
20
152.904
30
0
11
250.003
21
2.904
31
0
0
LINE
8
1
62
1
10
250.003
20
2.904
30
0
11
250.005
21
2.9
31
0
0
LINE
8
1
62
1
10
250.005
20
2.9
30
0
11
250.005
21
-18.524
31
0
0
LINE
8
1
62
1
10
250.005
20
-18.524
30
0
11
255.8
21
-18.524
31
0
0
LINE
8
1
62
1
10
255.8
20
-18.524
30
0
11
255.804
21
-18.525
31
0
0
LINE
8
1
62
1
10
255.804
20
-18.525
30
0
11
255.805
21
-18.529
31
0
0
LINE
8
1
62
1
10
255.805
20
-18.529
30
0
11
255.805
21
-39.957
31
0
0
LINE
8
1
62
1
10
255.805
20
-39.957
30
0
11
255.804
21
-39.961
31
0
0
LINE
8
1
62
1
10
255.804
20
-39.961
30
0
11
255.8
21
-39.962
31
0
0
LINE
8
1
62
1
10
255.8
20
-39.962
30
0
11
250.005
21
-39.962
31
0
0
LINE
8
1
62
1
10
250.005
20
-39.962
30
0
11
250.005
21
-61.381
31
0
0
LINE
8
1
62
1
10
250.005
20
-61.381
30
0
11
255.8
21
-61.381
31
0
0
LINE
8
1
62
1
10
255.8
20
-61.381
30
0
11
255.804
21
-61.382
31
0
0
LINE
8
1
62
1
10
255.804
20
-61.382
30
0
11
255.805
21
-61.386
31
0
0
LINE
8
1
62
1
10
255.805
20
-61.386
30
0
11
255.805
21
-82.814
31
0
0
LINE
8
1
62
1
10
255.805
20
-82.814
30
0
11
255.804
21
-82.818
31
0
0
LINE
8
1
62
1
10
255.804
20
-82.818
30
0
11
255.8
21
-82.819
31
0
0
LINE
8
1
62
1
10
255.8
20
-82.819
30
0
11
250.005
21
-82.819
31
0
0
LINE
8
1
62
1
10
250.005
20
-82.819
30
0
11
250.005
21
-104.238
31
0
0
LINE
8
1
62
1
10
250.005
20
-104.238
30
0
11
255.8
21
-104.238
31
0
0
LINE
8
1
62
1
10
255.8
20
-104.238
30
0
11
255.804
21
-104.239
31
0
0
LINE
8
1
62
1
10
255.804
20
-104.239
30
0
11
255.805
21
-104.243
31
0
0
LINE
8
1
62
1
10
255.805
20
-104.243
30
0
11
255.805
21
-125.671
31
0
0
LINE
8
1
62
1
10
255.805
20
-125.671
30
0
11
255.804
21
-125.675
31
0
0
LINE
8
1
62
1
10
255.804
20
-125.675
30
0
11
255.8
21
-125.676
31
0
0
LINE
8
1
62
1
10
255.8
20
-125.676
30
0
11
250.005
21
-125.676
31
0
0
LINE
8
1
62
1
10
250.005
20
-125.676
30
0
11
250.005
21
-152.9
31
0
0
LINE
8
1
62
1
10
250.005
20
-152.9
30
0
11
250.004
21
-152.904
31
0
0
LINE
8
1
62
1
10
250.004
20
-152.904
30
0
11
250
21
-152.905
31
0
0
LINE
8
1
62
1
10
250
20
-152.905
30
0
11
226.19
21
-152.905
31
0
0
LINE
8
1
62
1
10
226.19
20
-152.905
30
0
11
226.186
21
-152.904
31
0
0
LINE
8
1
62
1
10
226.186
20
-152.904
30
0
11
226.185
21
-152.9
31
0
0
LINE
8
1
62
1
10
226.185
20
-152.9
30
0
11
226.185
21
-147.105
31
0
0
LINE
8
1
62
1
10
226.185
20
-147.105
30
0
11
202.386
21
-147.105
31
0
0
LINE
8
1
62
1
10
202.386
20
-147.105
30
0
11
202.386
21
-152.9
31
0
0
LINE
8
1
62
1
10
202.386
20
-152.9
30
0
11
202.385
21
-152.904
31
0
0
LINE
8
1
62
1
10
202.385
20
-152.904
30
0
11
202.381
21
-152.905
31
0
0
LINE
8
1
62
1
10
202.381
20
-152.905
30
0
11
178.571
21
-152.905
31
0
0
LINE
8
1
62
1
10
178.571
20
-152.905
30
0
11
178.567
21
-152.904
31
0
0
LINE
8
1
62
1
10
178.567
20
-152.904
30
0
11
178.566
21
-152.9
31
0
0
LINE
8
1
62
1
10
178.566
20
-152.9
30
0
11
178.566
21
-147.105
31
0
0
LINE
8
1
62
1
10
178.566
20
-147.105
30
0
11
154.767
21
-147.105
31
0
0
LINE
8
1
62
1
10
154.767
20
-147.105
30
0
11
154.767
21
-152.9
31
0
0
LINE
8
1
62
1
10
154.767
20
-152.9
30
0
11
154.766
21
-152.904
31
0
0
LINE
8
1
62
1
10
154.766
20
-152.904
30
0
11
154.762
21
-152.905
31
0
0
LINE
8
1
62
1
10
154.762
20
-152.905
30
0
11
130.952
21
-152.905
31
0
0
LINE
8
1
62
1
10
130.952
20
-152.905
30
0
11
130.948
21
-152.904
31
0
0
LINE
8
1
62
1
10
130.948
20
-152.904
30
0
11
130.947
21
-152.9
31
0
0
LINE
8
1
62
1
10
130.947
20
-152.9
30
0
11
130.947
21
-147.105
31
0
0
LINE
8
1
62
1
10
130.947
20
-147.105
30
0
11
107.148
21
-147.105
31
0
0
LINE
8
1
62
1
10
107.148
20
-147.105
30
0
11
107.148
21
-152.9
31
0
0
LINE
8
1
62
1
10
107.148
20
-152.9
30
0
11
107.147
21
-152.904
31
0
0
LINE
8
1
62
1
10
107.147
20
-152.904
30
0
11
107.143
21
-152.905
31
0
0
LINE
8
1
62
1
10
107.143
20
-152.905
30
0
11
83.333
21
-152.905
31
0
0
LINE
8
1
62
1
10
83.333
20
-152.905
30
0
11
83.33
21
-152.904
31
0
0
LINE
8
1
62
1
10
83.33
20
-152.904
30
0
11
83.328
21
-152.9
31
0
0
LINE
8
1
62
1
10
83.328
20
-152.9
30
0
11
83.328
21
-147.105
31
0
0
LINE
8
1
62
1
10
83.328
20
-147.105
30
0
11
59.529
21
-147.105
31
0
0
LINE
8
1
62
1
10
59.529
20
-147.105
30
0
11
59.529
21
-152.9
31
0
0
LINE
8
1
62
1
10
59.529
20
-152.9
30
0
11
59.527
21
-152.904
31
0
0
LINE
8
1
62
1
10
59.527
20
-152.904
30
0
11
59.524
21
-152.905
31
0
0
LINE
8
1
62
1
10
59.524
20
-152.905
30
0
11
35.714
21
-152.905
31
0
0
LINE
8
1
62
1
10
35.714
20
-152.905
30
0
11
35.711
21
-152.904
31
0
0
LINE
8
1
62
1
10
35.711
20
-152.904
30
0
11
35.709
21
-152.9
31
0
0
LINE
8
1
62
1
10
35.709
20
-152.9
30
0
11
35.709
21
-147.105
31
0
0
LINE
8
1
62
1
10
35.709
20
-147.105
30
0
11
11.91
21
-147.105
31
0
0
LINE
8
1
62
1
10
11.91
20
-147.105
30
0
11
11.91
21
-152.9
31
0
0
LINE
8
1
62
1
10
11.91
20
-152.9
30
0
11
11.908
21
-152.904
31
0
0
LINE
8
1
62
1
10
11.908
20
-152.904
30
0
11
11.905
21
-152.905
31
0
0
LINE
8
1
62
1
10
11.905
20
-152.905
30
0
11
-11.905
21
-152.905
31
0
0
LINE
8
1
62
1
10
-11.905
20
-152.905
30
0
11
-11.908
21
-152.904
31
0
0
LINE
8
1
62
1
10
-11.908
20
-152.904
30
0
11
-11.91
21
-152.9
31
0
0
LINE
8
1
62
1
10
-11.91
20
-152.9
30
0
11
-11.91
21
-147.105
31
0
0
LINE
8
1
62
1
10
-11.91
20
-147.105
30
0
11
-35.709
21
-147.105
31
0
0
LINE
8
1
62
1
10
-35.709
20
-147.105
30
0
11
-35.709
21
-152.9
31
0
0
LINE
8
1
62
1
10
-35.709
20
-152.9
30
0
11
-35.711
21
-152.904
31
0
0
LINE
8
1
62
1
10
-35.711
20
-152.904
30
0
11
-35.714
21
-152.905
31
0
0
LINE
8
1
62
1
10
-35.714
20
-152.905
30
0
11
-59.524
21
-152.905
31
0
0
LINE
8
1
62
1
10
-59.524
20
-152.905
30
0
11
-59.527
21
-152.904
31
0
0
LINE
8
1
62
1
10
-59.527
20
-152.904
30
0
11
-59.529
21
-152.9
31
0
0
LINE
8
1
62
1
10
-59.529
20
-152.9
30
0
11
-59.529
21
-147.105
31
0
0
LINE
8
1
62
1
10
-59.529
20
-147.105
30
0
11
-83.328
21
-147.105
31
0
0
LINE
8
1
62
1
10
-83.328
20
-147.105
30
0
11
-83.328
21
-152.9
31
0
0
LINE
8
1
62
1
10
-83.328
20
-152.9
30
0
11
-83.33
21
-152.904
31
0
0
LINE
8
1
62
1
10
-83.33
20
-152.904
30
0
11
-83.333
21
-152.905
31
0
0
LINE
8
1
62
1
10
-83.333
20
-152.905
30
0
11
-107.143
21
-152.905
31
0
0
LINE
8
1
62
1
10
-107.143
20
-152.905
30
0
11
-107.147
21
-152.904
31
0
0
LINE
8
1
62
1
10
-107.147
20
-152.904
30
0
11
-107.148
21
-152.9
31
0
0
LINE
8
1
62
1
10
-107.148
20
-152.9
30
0
11
-107.148
21
-147.105
31
0
0
LINE
8
1
62
1
10
-107.148
20
-147.105
30
0
11
-130.947
21
-147.105
31
0
0
LINE
8
1
62
1
10
-130.947
20
-147.105
30
0
11
-130.947
21
-152.9
31
0
0
LINE
8
1
62
1
10
-130.947
20
-152.9
30
0
11
-130.948
21
-152.904
31
0
0
LINE
8
1
62
1
10
-130.948
20
-152.904
30
0
11
-130.952
21
-152.905
31
0
0
LINE
8
1
62
1
10
-130.952
20
-152.905
30
0
11
-154.762
21
-152.905
31
0
0
LINE
8
1
62
1
10
-154.762
20
-152.905
30
0
11
-154.766
21
-152.904
31
0
0
LINE
8
1
62
1
10
-154.766
20
-152.904
30
0
11
-154.767
21
-152.9
31
0
0
LINE
8
1
62
1
10
-154.767
20
-152.9
30
0
11
-154.767
21
-147.105
31
0
0
LINE
8
1
62
1
10
-154.767
20
-147.105
30
0
11
-178.566
21
-147.105
31
0
0
LINE
8
1
62
1
10
-178.566
20
-147.105
30
0
11
-178.566
21
-152.9
31
0
0
LINE
8
1
62
1
10
-178.566
20
-152.9
30
0
11
-178.567
21
-152.904
31
0
0
LINE
8
1
62
1
10
-178.567
20
-152.904
30
0
11
-178.571
21
-152.905
31
0
0
LINE
8
1
62
1
10
-178.571
20
-152.905
30
0
11
-202.381
21
-152.905
31
0
0
LINE
8
1
62
1
10
-202.381
20
-152.905
30
0
11
-202.385
21
-152.904
31
0
0
LINE
8
1
62
1
10
-202.385
20
-152.904
30
0
11
-202.386
21
-152.9
31
0
0
LINE
8
1
62
1
10
-202.386
20
-152.9
30
0
11
-202.386
21
-147.105
31
0
0
LINE
8
1
62
1
10
-202.386
20
-147.105
30
0
11
-226.185
21
-147.105
31
0
0
LINE
8
1
62
1
10
-226.185
20
-147.105
30
0
11
-226.185
21
-152.9
31
0
0
LINE
8
1
62
1
10
-226.185
20
-152.9
30
0
11
-226.186
21
-152.904
31
0
0
LINE
8
1
62
1
10
-226.186
20
-152.904
30
0
11
-226.19
21
-152.905
31
0
0
LINE
8
1
62
1
10
-226.19
20
-152.905
30
0
11
-250
21
-152.905
31
0
0
LINE
8
1
62
1
10
-250
20
-152.905
30
0
11
-250.004
21
-152.904
31
0
0
LINE
8
1
62
1
10
-250.004
20
-152.904
30
0
11
-250.005
21
-152.9
31
0
0
LINE
8
1
62
1
10
-250.005
20
-152.9
30
0
11
-250.005
21
-124.028
31
0
0
LINE
8
1
62
1
10
-250.005
20
-124.028
30
0
11
-255.8
21
-124.028
31
0
0
LINE
8
1
62
1
10
-255.8
20
-124.028
30
0
11
-255.804
21
-124.027
31
0
0
LINE
8
1
62
1
10
-255.804
20
-124.027
30
0
11
-255.805
21
-124.023
31
0
0
LINE
8
1
62
1
10
-255.805
20
-124.023
30
0
11
-255.805
21
-100.946
31
0
0
LINE
8
1
62
1
10
-255.805
20
-100.946
30
0
11
-255.804
21
-100.942
31
0
0
LINE
8
1
62
1
10
-255.804
20
-100.942
30
0
11
-255.8
21
-100.941
31
0
0
LINE
8
1
62
2
10
-255.8
20
-100.941
30
0
11
-255.775
21
-100.898
31
0
0
LINE
8
1
62
3
10
-255.775
20
-100.898
30
0
11
-255.775
21
-100.898
31
15
0
ENDSEC
0
EOF
